<?xml version="1.0" encoding="UTF-8"?>
<svg version="1.1" xmlns="http://www.w3.org/2000/svg" width="2000" height="2000">
<path d="M0 0 C1.14065918 0.14453613 2.28131836 0.28907227 3.45654297 0.43798828 C84.18859939 10.76830526 167.88624415 40.61675025 231.94140625 91.83984375 C233.90763119 93.19469901 233.90763119 93.19469901 236.06640625 92.8671875 C238.24475722 91.8902301 239.62565221 90.81415598 241.375 89.1875 C244.52340526 86.32584541 247.70969599 83.52794193 250.953125 80.77539062 C257.20485571 75.46821488 263.30389981 70.02386642 269.328125 64.4609375 C272.15097584 61.8609433 274.98305924 59.28177063 277.90909481 56.7981739 C279.33032989 55.57591483 280.72570925 54.32307455 282.09646702 53.0444622 C288.76461941 47.15339744 294.70157289 45.22325383 303.35327148 43.64501953 C304.66742683 43.38355722 305.98107588 43.11953942 307.29425049 42.85319519 C310.82883672 42.14372375 314.36935062 41.46985044 317.91211963 40.80262613 C321.63864031 40.09440408 325.3585686 39.35306385 329.07936096 38.615448 C336.1234628 37.22418477 343.17294814 35.86254632 350.22488028 34.51160133 C358.21387027 32.97959783 366.1961112 31.41378119 374.17802703 29.84540772 C386.6202971 27.40154175 399.06605873 24.97618201 411.51733398 22.57861328 C413.32797081 22.22954674 413.32797081 22.22954674 415.17518616 21.87342834 C418.44927149 21.24438122 421.7245462 20.62187418 425 20 C426.02407518 19.80071774 427.04815037 19.60143547 428.10325813 19.39611435 C429.06913794 19.21221272 430.03501774 19.02831108 431.03016663 18.83883667 C431.87143632 18.67647963 432.71270601 18.51412258 433.57946873 18.34684563 C436.08576644 17.98771025 438.47164371 17.93945567 441 18 C437.98772074 30.45600113 434.58546175 42.78359617 431.08203125 55.109375 C430.50543702 57.14487251 429.92906197 59.18043212 429.35289001 61.21604919 C427.82355112 66.61696042 426.29125364 72.01702793 424.75834656 77.41692734 C423.1753366 82.9953028 421.59512131 88.57446976 420.01464844 94.15356445 C417.50747694 103.00269161 414.99880259 111.85139114 412.48876953 120.69970703 C409.44693876 131.42276533 406.40806555 142.1466584 403.37109375 152.87109375 C402.56731709 155.70931433 401.76352153 158.54752956 400.9597168 161.38574219 C400.77259156 162.04648554 400.58546633 162.70722889 400.39267063 163.38799477 C397.59698586 173.25919368 394.79866128 183.12964462 392 193 C390.97753174 193.2266333 389.95506348 193.4532666 388.90161133 193.68676758 C385.04536656 194.54167344 381.18928672 195.39732129 377.33325195 196.25317383 C375.67606909 196.62088385 374.01884375 196.9884025 372.36157227 197.35571289 C362.56408755 199.5273356 352.77305464 201.72045878 343 204 C344.92332735 206.63235784 346.84742872 209.2641341 348.7734375 211.89453125 C351.37848491 215.52788684 353.83912737 219.24678562 356.26171875 223.00390625 C358.30662321 225.35209991 360.06144441 226.07387941 363 227 C362.59265625 227.52335938 362.1853125 228.04671875 361.765625 228.5859375 C360.65207109 231.15072217 360.65207109 231.15072217 362.421875 234.0390625 C363.18373277 235.243465 363.96106064 236.43816078 364.75 237.625 C365.60665595 238.98541484 366.46072583 240.3474608 367.3125 241.7109375 C367.75980469 242.41959961 368.20710938 243.12826172 368.66796875 243.85839844 C409.30250252 309.18943404 429.88579897 388.56825559 434.1875 464.8125 C434.23056274 465.57495026 434.27362549 466.33740051 434.31799316 467.12295532 C438.72436813 547.08093158 422.65285512 628.50883726 376.3046875 724.82421875 C375.91837158 725.50734131 375.53205566 726.19046387 375.1340332 726.89428711 C374.1693447 728.56496318 373.16696964 730.21374162 372.16015625 731.859375 C369.77944335 738.30413317 372.24881349 745.76089755 373.78173828 752.28613281 C373.95905487 753.05970123 374.13637146 753.83326965 374.31906128 754.63027954 C374.7005058 756.29215222 375.08415162 757.95352094 375.46982193 759.61441803 C376.0799962 762.24487132 376.68293687 764.87688956 377.28390503 767.50946045 C378.99217777 774.98787686 380.71142312 782.46373758 382.43994141 789.9375 C383.5000704 794.52356036 384.55033652 799.11178862 385.59453964 803.70149994 C385.99342873 805.44547368 386.39614222 807.18857732 386.80276871 808.93076324 C387.37011097 811.36230948 387.92492267 813.79640647 388.47705078 816.23144531 C388.64738831 816.94738861 388.81772583 817.66333191 388.9932251 818.40097046 C389.8512522 822.25136634 390.12471888 825.19326805 389 829 C380.56189015 831.58295666 372.12340421 834.16468047 363.68454266 836.74518013 C359.58930542 837.99753091 355.49422572 839.2503925 351.3994751 840.5043335 C335.12679512 845.48739206 318.85461437 850.47003843 302.54017448 855.31497955 C299.45092888 856.23278659 296.36267522 857.15392413 293.27416992 858.07421875 C288.76056464 859.41855766 284.24335573 860.74977999 279.72387695 862.07421875 C277.69858726 862.67660206 275.67343214 863.27943807 273.6484375 863.8828125 C272.74859634 864.14232697 271.84875519 864.40184143 270.92164612 864.66921997 C263.33056042 866.95166593 258.08188427 870.80126464 252.125 876 C208.16425521 913.58106807 155.3910203 941.12366123 101 960 C99.56720703 960.50225098 99.56720703 960.50225098 98.10546875 961.01464844 C58.75385134 974.67111714 17.45124113 981.91843863 -24 985 C-25.90144775 985.14139404 -25.90144775 985.14139404 -27.84130859 985.28564453 C-37.60533278 985.95543095 -47.33863754 986.2410871 -57.125 986.25 C-58.30171265 986.25151062 -58.30171265 986.25151062 -59.50219727 986.25305176 C-128.28879116 986.19448359 -198.50110696 972.06802125 -261 943 C-262.01545898 942.52804199 -263.03091797 942.05608398 -264.07714844 941.56982422 C-271.4276699 938.13270133 -278.7282714 934.60062264 -286 931 C-286.90991699 930.55043945 -287.81983398 930.10087891 -288.75732422 929.63769531 C-320.06290808 914.04558432 -350.15176763 893.96100358 -376.41015625 870.8046875 C-383.17450399 866.09106962 -392.22804878 864.31740063 -400.03125 861.9296875 C-401.32550372 861.53179849 -402.6196967 861.13371185 -403.91383362 860.73544312 C-407.3882452 859.66695487 -410.8636329 858.60167595 -414.33925247 857.53712463 C-417.23031432 856.65120749 -420.12080739 855.76344237 -423.01131916 854.87573242 C-451.32023139 846.18263872 -479.65495659 837.57448897 -508 829 C-509.41396666 824.33403886 -508.46692782 820.43943154 -507.35351562 815.83251953 C-507.16673752 815.02373352 -506.97995941 814.21494751 -506.78752136 813.38165283 C-506.38163425 811.62967603 -505.97109761 809.87877131 -505.55644226 808.12884903 C-504.8999798 805.35633082 -504.25668072 802.58105069 -503.61682129 799.80465698 C-502.02504111 792.90912784 -500.41299632 786.01837856 -498.79730225 779.12841797 C-497.43219299 773.30572894 -496.07690176 767.48093948 -494.73551941 761.65273666 C-494.10315925 758.92342352 -493.45638881 756.19778386 -492.8092041 753.47195435 C-492.42087272 751.79023429 -492.03326143 750.10834774 -491.64648438 748.42626953 C-491.37223885 747.29760971 -491.37223885 747.29760971 -491.092453 746.14614868 C-489.62015926 739.61786573 -490.03065374 734.12624256 -493.30078125 728.1640625 C-494.01512329 726.83616699 -494.01512329 726.83616699 -494.74389648 725.48144531 C-495.26153564 724.53881836 -495.7791748 723.59619141 -496.3125 722.625 C-497.41687164 720.55097253 -498.51834461 718.47539946 -499.6171875 716.3984375 C-500.18147461 715.33463867 -500.74576172 714.27083984 -501.32714844 713.17480469 C-536.12624542 647.13168485 -552.04240527 572.24785761 -554 498 C-554.02336426 497.20803223 -554.04672852 496.41606445 -554.07080078 495.60009766 C-556.42020162 406.42157996 -530.30159974 316.8918172 -480 230 C-480.66 229.67 -481.32 229.34 -482 229 C-482 228.34 -482 227.68 -482 227 C-480.72576172 226.55527344 -480.72576172 226.55527344 -479.42578125 226.1015625 C-474.52419663 223.65005 -472.07020552 218.84533012 -469.1875 214.375 C-468.03558813 212.63252692 -466.88326667 210.89032451 -465.73046875 209.1484375 C-465.22926514 208.37677246 -464.72806152 207.60510742 -464.21166992 206.81005859 C-463 205 -463 205 -462 204 C-463.02246826 203.7733667 -464.04493652 203.5467334 -465.09838867 203.31323242 C-468.95463344 202.45832656 -472.81071328 201.60267871 -476.66674805 200.74682617 C-478.32393091 200.37911615 -479.98115625 200.0115975 -481.63842773 199.64428711 C-491.43591245 197.4726644 -501.22694536 195.27954122 -511 193 C-519.95351905 162.24298517 -528.71337851 131.43741818 -537.30573654 100.57790756 C-538.30383536 96.99327513 -539.30221099 93.40871988 -540.30078125 89.82421875 C-540.49689499 89.12014893 -540.69300873 88.4160791 -540.89506531 87.69067383 C-543.75158578 77.43866373 -546.63515848 67.19460847 -549.54296875 56.95703125 C-549.89807526 55.70626297 -550.25318176 54.45549469 -550.61904907 53.16682434 C-552.28630956 47.29765121 -553.95732428 41.42957352 -555.6328125 35.56274414 C-556.21750229 33.50799073 -556.80214095 31.45322277 -557.38671875 29.3984375 C-557.65445602 28.46550369 -557.9221933 27.53256989 -558.19804382 26.57136536 C-558.43779434 25.72716537 -558.67754486 24.88296539 -558.92456055 24.01318359 C-559.13372604 23.28118744 -559.34289154 22.54919128 -559.55839539 21.79501343 C-560 20 -560 20 -560 18 C-551.55364461 18.57031441 -543.37735728 19.92261576 -535.07421875 21.54101562 C-533.71122315 21.80279435 -532.34815327 22.06418651 -530.98501587 22.32522583 C-526.55079993 23.17683864 -522.11898496 24.04055397 -517.6875 24.90625 C-516.55077158 25.12804963 -516.55077158 25.12804963 -515.39107895 25.35433006 C-508.22785493 26.75233285 -501.06549865 28.15469668 -493.9052887 29.56806183 C-484.79574473 31.36594724 -475.68250361 33.14166521 -466.56278896 34.88725138 C-460.1213236 36.12210076 -453.68512041 37.38227454 -447.25221348 38.66095114 C-443.42247704 39.42150173 -439.59138086 40.17114428 -435.75424194 40.89350891 C-432.14308545 41.57389088 -428.53952054 42.28578087 -424.93915939 43.02108383 C-423.00737726 43.40750614 -421.06923059 43.76168819 -419.13101196 44.1144104 C-410.12834065 45.99969345 -404.61738778 49.70191001 -398 56 C-396.71555802 57.15964579 -395.43056686 58.31868428 -394.14453125 59.4765625 C-393.03093431 60.52294291 -391.92020539 61.57238475 -390.8125 62.625 C-389.61667294 63.74823485 -388.42006483 64.87063877 -387.22265625 65.9921875 C-386.66465332 66.51522461 -386.10665039 67.03826172 -385.53173828 67.57714844 C-383.04563355 69.88652337 -380.49010108 72.11110933 -377.921875 74.328125 C-375.58894926 76.35758073 -373.29488755 78.427647 -371 80.5 C-369.74123047 81.62921875 -369.74123047 81.62921875 -368.45703125 82.78125 C-366.87984418 84.20548252 -365.31364619 85.64203428 -363.76171875 87.09375 C-363.07722656 87.7228125 -362.39273438 88.351875 -361.6875 89 C-361.09324219 89.556875 -360.49898437 90.11375 -359.88671875 90.6875 C-357.42921297 92.39706924 -356.01675602 92.96013098 -353 93 C-350.70452439 91.61340865 -348.81119562 90.24451612 -346.75 88.5625 C-287.17735645 42.6334264 -213.43865397 16.03028673 -140 3 C-139.08234863 2.83516113 -138.16469727 2.67032227 -137.21923828 2.50048828 C-131.49775779 1.49308163 -125.76608525 0.70369899 -120 0 C-118.95602051 -0.13535156 -117.91204102 -0.27070313 -116.83642578 -0.41015625 C-78.4311764 -5.22640557 -38.35717319 -5.15278441 0 0 Z " fill="#F8E6ED" transform="translate(1021,282)"/>
<path d="M0 0 C-3.01227926 12.45600113 -6.41453825 24.78359617 -9.91796875 37.109375 C-10.49456298 39.14487251 -11.07093803 41.18043212 -11.64710999 43.21604919 C-13.17644888 48.61696042 -14.70874636 54.01702793 -16.24165344 59.41692734 C-17.8246634 64.9953028 -19.40487869 70.57446976 -20.98535156 76.15356445 C-23.49252306 85.00269161 -26.00119741 93.85139114 -28.51123047 102.69970703 C-31.55306124 113.42276533 -34.59193445 124.1466584 -37.62890625 134.87109375 C-38.43268291 137.70931433 -39.23647847 140.54752956 -40.0402832 143.38574219 C-40.22740844 144.04648554 -40.41453367 144.70722889 -40.60732937 145.38799477 C-43.40301414 155.25919368 -46.20133872 165.12964462 -49 175 C-50.02246826 175.2266333 -51.04493652 175.4532666 -52.09838867 175.68676758 C-55.95463344 176.54167344 -59.81071328 177.39732129 -63.66674805 178.25317383 C-65.32393091 178.62088385 -66.98115625 178.9884025 -68.63842773 179.35571289 C-78.43591245 181.5273356 -88.22694536 183.72045878 -98 186 C-96.07667265 188.63235784 -94.15257128 191.2641341 -92.2265625 193.89453125 C-89.62151509 197.52788684 -87.16087263 201.24678562 -84.73828125 205.00390625 C-82.69337679 207.35209991 -80.93855559 208.07387941 -78 209 C-78.40734375 209.52335938 -78.8146875 210.04671875 -79.234375 210.5859375 C-80.34792891 213.15072217 -80.34792891 213.15072217 -78.578125 216.0390625 C-77.81626723 217.243465 -77.03893936 218.43816078 -76.25 219.625 C-75.39334405 220.98541484 -74.53927417 222.3474608 -73.6875 223.7109375 C-73.24019531 224.41959961 -72.79289062 225.12826172 -72.33203125 225.85839844 C-31.69749748 291.18943404 -11.11420103 370.56825559 -6.8125 446.8125 C-6.76943726 447.57495026 -6.72637451 448.33740051 -6.68200684 449.12295532 C-2.27563187 529.08093158 -18.34714488 610.50883726 -64.6953125 706.82421875 C-65.08162842 707.50734131 -65.46794434 708.19046387 -65.8659668 708.89428711 C-66.8306553 710.56496318 -67.83303036 712.21374162 -68.83984375 713.859375 C-71.22055665 720.30413317 -68.75118651 727.76089755 -67.21826172 734.28613281 C-67.04094513 735.05970123 -66.86362854 735.83326965 -66.68093872 736.63027954 C-66.2994942 738.29215222 -65.91584838 739.95352094 -65.53017807 741.61441803 C-64.9200038 744.24487132 -64.31706313 746.87688956 -63.71609497 749.50946045 C-62.00782223 756.98787686 -60.28857688 764.46373758 -58.56005859 771.9375 C-57.4999296 776.52356036 -56.44966348 781.11178862 -55.40546036 785.70149994 C-55.00657127 787.44547368 -54.60385778 789.18857732 -54.19723129 790.93076324 C-53.62988903 793.36230948 -53.07507733 795.79640647 -52.52294922 798.23144531 C-52.35261169 798.94738861 -52.18227417 799.66333191 -52.0067749 800.40097046 C-51.1487478 804.25136634 -50.87528112 807.19326805 -52 811 C-60.43810985 813.58295666 -68.87659579 816.16468047 -77.31545734 818.74518013 C-81.41069458 819.99753091 -85.50577428 821.2503925 -89.6005249 822.5043335 C-105.87320488 827.48739206 -122.14538563 832.47003843 -138.45982552 837.31497955 C-141.54907112 838.23278659 -144.63732478 839.15392413 -147.72583008 840.07421875 C-152.23943536 841.41855766 -156.75664427 842.74977999 -161.27612305 844.07421875 C-163.30141274 844.67660206 -165.32656786 845.27943807 -167.3515625 845.8828125 C-168.25140366 846.14232697 -169.15124481 846.40184143 -170.07835388 846.66921997 C-177.66943958 848.95166593 -182.91811573 852.80126464 -188.875 858 C-232.83574479 895.58106807 -285.6089797 923.12366123 -340 942 C-341.43279297 942.50225098 -341.43279297 942.50225098 -342.89453125 943.01464844 C-382.24614866 956.67111714 -423.54875887 963.91843863 -465 967 C-466.26763184 967.0942627 -467.53526367 967.18852539 -468.84130859 967.28564453 C-478.60533278 967.95543095 -488.33863754 968.2410871 -498.125 968.25 C-499.30171265 968.25151062 -499.30171265 968.25151062 -500.50219727 968.25305176 C-569.28879116 968.19448359 -639.50110696 954.06802125 -702 925 C-703.01545898 924.52804199 -704.03091797 924.05608398 -705.07714844 923.56982422 C-712.4276699 920.13270133 -719.7282714 916.60062264 -727 913 C-727.90991699 912.55043945 -728.81983398 912.10087891 -729.75732422 911.63769531 C-809.55264795 871.89470409 -809.55264795 871.89470409 -821 849 C-801.90457431 854.07286687 -783.04134275 859.9975267 -764.15625 865.79296875 C-755.00241039 868.59700748 -745.84211229 871.34839395 -736.625 873.9375 C-726.77007635 876.71210511 -717.03095335 879.81498226 -707.29296875 882.97265625 C-692.84341224 887.6467336 -678.31292948 892.0660834 -663.79174805 896.51123047 C-660.57113904 897.4973548 -657.35099147 898.48497588 -654.13085938 899.47265625 C-643.64367314 902.68578825 -633.15013702 905.86844038 -622.61816406 908.93188477 C-618.79412666 910.0607757 -614.99089531 911.24101103 -611.1875 912.4375 C-610.08970215 912.78276733 -610.08970215 912.78276733 -608.96972656 913.13500977 C-608.38674805 913.31862061 -607.80376953 913.50223145 -607.203125 913.69140625 C-602.62599014 915.12420131 -598.03281212 916.50181261 -593.4375 917.875 C-583.25534193 920.91785342 -573.0883936 924.00943403 -562.92333984 927.10888672 C-558.11607158 928.57427249 -553.30799474 930.03699998 -548.5 931.5 C-546.59635221 932.07942066 -544.69270638 932.65884775 -542.7890625 933.23828125 C-538.82568643 934.44455546 -534.86211981 935.65020122 -530.8984375 936.85546875 C-529.88974609 937.16226563 -528.88105469 937.4690625 -527.84179688 937.78515625 C-525.94471324 938.36214943 -524.04758241 938.9389875 -522.15039062 939.515625 C-515.09539026 941.66167214 -508.04820401 943.83132184 -501 946 C-501 906.73 -501 867.46 -501 827 C-504.3 827 -507.6 827 -511 827 C-524.48090709 824.00103885 -535.95409175 816.18663559 -544 805 C-551.83360777 792.00333256 -555.64448671 777.55018459 -552.203125 762.51953125 C-550.83125186 758.27200096 -549.23362827 754.4361061 -547.125 750.5 C-545.70301727 748.11851474 -545.70301727 748.11851474 -546.703125 746.08203125 C-550.37664977 740.18447491 -556.31587263 735.66697147 -561.54296875 731.171875 C-564.88142616 728.22086972 -568.12492123 725.17270323 -571.375 722.125 C-576.38635418 717.42816338 -581.43064087 712.77772444 -586.55078125 708.19921875 C-590.88876325 704.30402917 -595.17452574 700.3515627 -599.46777344 696.40722656 C-601.97677106 694.10291453 -604.48847057 691.80155179 -607 689.5 C-610.02482361 686.72806824 -613.04900597 683.95545292 -616.0703125 681.1796875 C-620.63029978 676.99212221 -625.19735903 672.81442771 -629.8125 668.6875 C-634.09438392 664.84690524 -638.3015156 660.93111823 -642.5 657 C-651.58469367 647.54023079 -651.58469367 647.54023079 -662 640 C-662 639.34 -662 638.68 -662 638 C-662.99 637.67 -663.98 637.34 -665 637 C-665.39132678 629.1995528 -664.07330536 621.87784442 -662.60708618 614.2472229 C-662.18057589 612.02644718 -661.76404984 609.8040046 -661.3503418 607.58081055 C-660.80857382 604.66994944 -660.26428968 601.75958254 -659.71777344 598.84960938 C-657.9063596 589.1345164 -656.29865898 579.41251169 -655.03369141 569.61132812 C-653.1232984 554.85630403 -650.40940116 540.26765569 -647.67919922 525.64697266 C-646.77045864 520.76747348 -645.88226296 515.88434694 -645 511 C-628.56216918 507.46259609 -612.09455774 504.2458803 -595.53659058 501.32672119 C-578.16423576 498.25941717 -560.84587261 494.92715838 -543.53100586 491.55175781 C-538.3778461 490.54856526 -533.2221454 489.55962476 -528.06396484 488.58258057 C-525.9879898 488.18785583 -523.9128115 487.78892172 -521.83837891 487.38616943 C-518.74887787 486.78903046 -515.65636532 486.21076203 -512.5625 485.63671875 C-511.6456543 485.45607376 -510.72880859 485.27542877 -509.78417969 485.08930969 C-500.33940409 483.37784575 -491.74231214 484.90647149 -482.4296875 486.75 C-481.53145767 486.92383209 -480.63322784 487.09766418 -479.70777893 487.27676392 C-477.77306467 487.65160454 -475.83873247 488.02842163 -473.90475464 488.40704346 C-468.65575811 489.43433022 -463.40377857 490.44620344 -458.15234375 491.4609375 C-457.06629349 491.67124603 -455.98024323 491.88155457 -454.86128235 492.09823608 C-443.39470623 494.31668488 -431.91733226 496.47636767 -420.4375 498.625 C-419.44801361 498.81046387 -418.45852722 498.99592773 -417.4390564 499.18701172 C-406.84312364 501.1727668 -396.24461393 503.14363854 -385.640625 505.0859375 C-384.74606094 505.24994049 -383.85149689 505.41394348 -382.92982483 505.58291626 C-378.73106884 506.35234805 -374.53187846 507.11923842 -370.33178711 507.88134766 C-368.86050426 508.15000999 -367.38923088 508.41872421 -365.91796875 508.6875 C-364.64719482 508.91824219 -363.3764209 509.14898438 -362.06713867 509.38671875 C-359 510 -359 510 -356 511 C-354.44233633 516.06644543 -353.55627301 521.18790352 -352.703125 526.41894531 C-352.58900269 527.11284866 -352.47488037 527.80675201 -352.3572998 528.52168274 C-351.98503801 530.78999231 -351.61749208 533.05903825 -351.25 535.328125 C-350.98890458 536.92467031 -350.72750594 538.52116607 -350.46582031 540.11761475 C-349.77976552 544.30789268 -349.09768941 548.49880849 -348.41650391 552.68988037 C-347.72789618 556.92253735 -347.03572933 561.1546119 -346.34375 565.38671875 C-345.56297381 570.16283746 -344.78252588 574.93900723 -344.00488281 579.71563721 C-343.88643005 580.44265209 -343.76797729 581.16966698 -343.64593506 581.91871262 C-343.41639097 583.32912286 -343.18741148 584.73962513 -342.95904541 586.15022659 C-342.45242369 589.27123948 -341.93174841 592.38858718 -341.38476562 595.50280762 C-341.20107422 596.55085571 -341.01738281 597.59890381 -340.828125 598.67871094 C-340.66731445 599.57072205 -340.50650391 600.46273315 -340.34082031 601.3817749 C-339.96369029 604.27893583 -339.94337247 607.08161212 -340 610 C-339.34 610 -338.68 610 -338 610 C-337.84072021 609.4704068 -337.68144043 608.9408136 -337.51733398 608.39517212 C-335.55907299 602.18335981 -332.96336523 596.47099343 -330.0625 590.6484375 C-329.58232422 589.67250641 -329.10214844 588.69657532 -328.60742188 587.69107056 C-327.07698898 584.58302837 -325.53886031 581.47887688 -324 578.375 C-321.99782275 574.32138507 -319.99871543 570.26626026 -318 566.2109375 C-317.50376633 565.2052774 -317.00753265 564.19961731 -316.4962616 563.16348267 C-311.62546093 553.27613749 -306.87057694 543.33460727 -302.13433838 533.38226318 C-299.829328 528.54143132 -297.50774224 523.70854548 -295.1875 518.875 C-294.70087891 517.86115234 -294.21425781 516.84730469 -293.71289062 515.80273438 C-289.52291244 507.07846881 -285.31551804 498.36264849 -281.10531616 489.64813232 C-277.05832335 481.27110734 -273.02236343 472.88888629 -269 464.5 C-264.38455855 454.87421302 -259.74845667 445.25852864 -255.10449219 435.64648438 C-251.05777791 427.27000696 -247.02209785 418.88833242 -243 410.5 C-238.38455855 400.87421302 -233.74845667 391.25852864 -229.10449219 381.64648438 C-224.57280059 372.2661304 -220.05696933 362.87828054 -215.55444336 353.48388672 C-212.81854999 347.77859817 -210.07296679 342.07813561 -207.31640625 336.3828125 C-207.00367767 335.7363678 -206.6909491 335.0899231 -206.3687439 334.42388916 C-204.8496162 331.28377965 -203.32929147 328.144262 -201.80664062 325.00585938 C-198.43881164 318.04672497 -195.15979492 311.05613044 -192 304 C-192.66 304 -193.32 304 -194 304 C-192.33993592 287.81632731 -189.77505973 271.75347371 -187.31772232 255.67650223 C-186.93291544 253.15748864 -186.54914229 250.63831941 -186.1656189 248.11911011 C-176.59024305 185.24858919 -166.70682662 122.41970275 -156.51098633 59.64672852 C-154.90968123 49.77642925 -153.35415987 39.90791872 -152 30 C-148.16143733 28.66194438 -144.40263039 27.58094891 -140.41719055 26.78588867 C-139.3309993 26.56726166 -138.24480804 26.34863464 -137.1257019 26.12338257 C-135.94895905 25.89059601 -134.77221619 25.65780945 -133.55981445 25.41796875 C-132.30864334 25.16729645 -131.05747223 24.91662415 -129.76838684 24.65835571 C-126.34731352 23.97306009 -122.92530768 23.29253181 -119.50310159 22.61291885 C-115.90959292 21.89849143 -112.31693189 21.17982587 -108.72416687 20.46166992 C-102.68649105 19.25542327 -96.64825441 18.0520198 -90.60961914 16.85058594 C-82.88648192 15.3139972 -75.16422302 13.77304239 -67.44225788 12.23057556 C-60.77510794 10.89881409 -54.10761737 9.56876101 -47.44004035 8.23913956 C-46.01619095 7.95517654 -44.59235277 7.67115725 -43.16852593 7.38708115 C-38.47501591 6.4506573 -33.78116989 5.51593725 -29.0871582 4.58203125 C-27.9205365 4.34924469 -26.75391479 4.11645813 -25.55194092 3.87661743 C-22.36925395 3.24421951 -19.18522071 2.61949989 -16 2 C-14.9838732 1.80062836 -13.96774639 1.60125671 -12.92082787 1.39584351 C-11.95515703 1.21196075 -10.9894862 1.028078 -9.99455261 0.83862305 C-9.14971408 0.67629684 -8.30487555 0.51397064 -7.43443584 0.34672546 C-4.92336404 -0.01091491 -2.53288434 -0.06068013 0 0 Z " fill="#F4C1D2" transform="translate(1462,300)"/>
<path d="M0 0 C-0.48561106 9.30180732 -1.56067083 18.31411152 -3.11028481 27.49917984 C-5.88411345 43.96441859 -8.51570704 60.45148006 -11.11328125 76.9453125 C-11.50592524 79.43537907 -11.8985695 81.9254456 -12.29121399 84.41551208 C-16.37789258 110.34822098 -20.42777644 136.28667421 -24.46704102 162.22680664 C-25.28525829 167.48116242 -26.10426105 172.7353947 -26.92407227 177.98950195 C-32.61733395 214.45604945 -32.61733395 214.45604945 -38.1872654 250.94158745 C-38.44736345 252.66584559 -38.70810886 254.39000622 -38.96954918 256.11406136 C-39.32035575 258.43043026 -39.66818452 260.74722357 -40.01489258 263.06420898 C-40.20698807 264.34279282 -40.39908356 265.62137665 -40.59700012 266.93870544 C-41.06525877 269.9811052 -41.06525877 269.9811052 -41 273 C-40.34 273.33 -39.68 273.66 -39 274 C-39.42708252 274.87922119 -39.85416504 275.75844238 -40.29418945 276.66430664 C-47.53781494 291.57900708 -54.77923522 306.49421169 -61.91748047 321.4597168 C-65.56808343 329.1091487 -69.24949156 336.74355392 -72.9375 344.375 C-77.30400997 353.41076936 -81.66130643 362.45082857 -86 371.5 C-90.6154157 381.12579928 -95.25154336 390.74147142 -99.89550781 400.35351562 C-103.94222209 408.72999304 -107.97790215 417.11166758 -112 425.5 C-116.61544145 435.12578698 -121.25154333 444.74147136 -125.89550781 454.35351562 C-130.43147399 463.74271775 -134.95059486 473.13988505 -139.45874023 482.54248047 C-143.3125872 490.57680403 -147.1854251 498.60187156 -151.0625 506.625 C-155.66382311 516.14704393 -160.24562318 525.67810204 -164.79907227 535.22314453 C-167.41323288 540.69791212 -170.04357375 546.16456395 -172.6875 551.625 C-173.00376343 552.2785144 -173.32002686 552.93202881 -173.64587402 553.60534668 C-175.20137307 556.81925159 -176.75849362 560.03235285 -178.31835938 563.24414062 C-181.00097619 568.78372905 -183.65615859 574.30781372 -186 580 C-186.66 580 -187.32 580 -188 580 C-192.02262206 555.96936026 -196.02837614 531.93596592 -199.96508789 507.89108276 C-200.32180384 505.71303557 -200.67906331 503.53507731 -201.03686523 501.35720825 C-201.53661905 498.31392301 -202.03426341 495.2703007 -202.53125 492.2265625 C-202.68086182 491.31733536 -202.83047363 490.40810822 -202.98461914 489.47132874 C-203.11924561 488.64370529 -203.25387207 487.81608185 -203.39257812 486.96337891 C-203.51056763 486.24211823 -203.62855713 485.52085754 -203.75012207 484.77774048 C-204 483 -204 483 -204 481 C-205.14069946 480.85304688 -205.14069946 480.85304688 -206.30444336 480.703125 C-217.46668816 479.19235957 -228.49948765 477.10264186 -239.5625 475 C-241.65774105 474.6042 -243.75303858 474.2086989 -245.84838867 473.81347656 C-250.27359862 472.97826495 -254.6984623 472.14125254 -259.12304688 471.30273438 C-269.54389444 469.32796853 -279.96652864 467.3626671 -290.38894653 465.39620972 C-293.78601206 464.75499971 -297.18293803 464.11305492 -300.57983398 463.47094727 C-309.7964864 461.72950809 -319.01313156 459.98891333 -328.23828125 458.29296875 C-330.16546997 457.9386377 -330.16546997 457.9386377 -332.1315918 457.57714844 C-334.36573266 457.16807379 -336.60023765 456.76097969 -338.83520508 456.35644531 C-340.2354895 456.10072754 -340.2354895 456.10072754 -341.6640625 455.83984375 C-342.44217285 455.69925537 -343.2202832 455.55866699 -344.02197266 455.41381836 C-346 455 -346 455 -349 454 C-349 359.29 -349 264.58 -349 167 C-342.35583214 167.66441679 -336.16875125 168.44518531 -329.70849609 169.87011719 C-328.83850479 170.05730316 -327.96851349 170.24448914 -327.07215881 170.43734741 C-324.22143847 171.05201675 -321.37246839 171.67442634 -318.5234375 172.296875 C-316.51025196 172.73238115 -314.49695424 173.167369 -312.48355103 173.60186768 C-307.18831907 174.74591621 -301.89450885 175.89640995 -296.60101318 177.04846191 C-291.2946463 178.20239969 -285.98716648 179.35119001 -280.6796875 180.5 C-279.64818195 180.72331749 -278.61667641 180.94663498 -277.55391312 181.17671967 C-274.48127976 181.84188784 -271.40861576 182.50691428 -268.3359375 183.171875 C-267.33553185 183.38838211 -266.33512619 183.60488922 -265.30440521 183.82795715 C-259.68367212 185.04420783 -254.06272386 186.25945514 -248.44139099 187.47293091 C-246.88260029 187.80945644 -245.32384982 188.14616843 -243.76515198 188.48312378 C-239.62896558 189.37696439 -235.49107882 190.26234304 -231.3515625 191.140625 C-230.43023529 191.33984558 -229.50890808 191.53906616 -228.55966187 191.74432373 C-222.83332736 192.96951467 -222.83332736 192.96951467 -217 193 C-215.28452152 191.81480091 -215.28452152 191.81480091 -213.875 190.0625 C-211.0885361 187.06077279 -208.2112269 184.48170647 -205 181.9375 C-199.53929088 177.54633667 -194.44674023 172.82881586 -189.34887695 168.02441406 C-185.59135191 164.4832708 -181.79971057 161.00647527 -177.88671875 157.63671875 C-175.56341213 155.62126228 -173.28251535 153.56151538 -171 151.5 C-167.38323655 148.23609152 -163.73610392 145.01209051 -160.0625 141.8125 C-157.69035571 139.72788836 -155.34443935 137.61571356 -153 135.5 C-149.37976277 132.23295665 -145.73016435 129.00479224 -142.05078125 125.8046875 C-139.73911203 123.77041859 -137.4646857 121.6977769 -135.1875 119.625 C-131.83198275 116.59026816 -128.41161818 113.6958109 -124.875 110.875 C-119.27148201 106.34754877 -114.05059067 101.45649907 -108.83349609 96.49169922 C-104.90266387 92.7548844 -100.90282579 89.12586208 -96.8059082 85.57177734 C-94.56788667 83.62390893 -92.37725933 81.62684653 -90.1875 79.625 C-86.81059018 76.57141133 -83.36782868 73.65570795 -79.8125 70.8125 C-74.3698364 66.41799558 -69.28465086 61.68890592 -64.21411133 56.87231445 C-60.91719079 53.74768999 -57.57902966 50.80484239 -54 48 C-51.79508605 45.8531101 -49.63799338 43.66989305 -47.515625 41.44140625 C-44.16823521 37.99040678 -40.68975475 34.8834157 -36.9375 31.875 C-31.11000052 27.18731447 -25.68328925 22.12976569 -20.23046875 17.015625 C-17.15119727 14.12941966 -14.01355884 11.32161983 -10.81640625 8.56640625 C-9.46079219 7.39737133 -8.11616322 6.21557544 -6.77734375 5.02734375 C-5.68099609 4.05474609 -5.68099609 4.05474609 -4.5625 3.0625 C-3.90378906 2.47597656 -3.24507812 1.88945312 -2.56640625 1.28515625 C-1 0 -1 0 0 0 Z " fill="#FECFDD" transform="translate(1310,330)"/>
<path d="M0 0 C1.14065918 0.14453613 2.28131836 0.28907227 3.45654297 0.43798828 C88.80733124 11.35930921 165.89998427 44.83895001 236 94 C234.44298875 97.89252812 231.98565894 100.06142977 228.875 102.8125 C228.37782471 103.25480957 227.88064941 103.69711914 227.3684082 104.15283203 C225.91744346 105.44106957 224.45888137 106.72073467 223 108 C222.33613281 108.58910156 221.67226562 109.17820312 220.98828125 109.78515625 C217.97107136 112.44894026 214.91955515 115.07079635 211.8515625 117.67578125 C205.26903002 123.27292128 198.80195328 128.95728228 192.47827148 134.84594727 C189.04420657 138.04343505 185.56234134 141.16758987 182.01171875 144.234375 C179.53387293 146.4091057 177.11421125 148.64338402 174.6875 150.875 C171.12865889 154.12628694 167.51480381 157.24039458 163.75 160.25 C157.6996465 165.12847729 152.0971113 170.44264017 146.4453125 175.76953125 C143.32224078 178.71032579 140.13727908 181.56399177 136.88671875 184.36328125 C134.56341213 186.37873772 132.28251535 188.43848462 130 190.5 C126.38323655 193.76390848 122.73610392 196.98790949 119.0625 200.1875 C116.69035571 202.27211164 114.34443935 204.38428644 112 206.5 C108.37976277 209.76704335 104.73016435 212.99520776 101.05078125 216.1953125 C98.73911203 218.22958141 96.4646857 220.3022231 94.1875 222.375 C89.74333821 226.39460397 85.14514915 230.17933236 80.45703125 233.91015625 C78.33914004 235.71154225 76.69010892 237.48731081 74.9375 239.625 C72 242 72 242 69.99557495 242.11068726 C62.77946458 241.22115853 55.73017906 239.7940885 48.6328125 238.2265625 C46.6564531 237.79742367 44.68009317 237.36828727 42.70371151 236.93925095 C40.6119087 236.48410252 38.52070927 236.02627135 36.42965698 235.56768799 C32.08744394 234.61574001 27.74327764 233.67293798 23.39868164 232.73193359 C17.4806747 231.44963268 11.56309994 230.16536813 5.64599609 228.87890625 C-5.96630431 226.35480285 -17.57900979 223.83295616 -29.19952393 221.34686279 C-31.42754037 220.86861908 -33.65488914 220.38725334 -35.88153076 219.90264893 C-38.96242563 219.2322547 -42.04532567 218.57197523 -45.12890625 217.9140625 C-46.01873703 217.7178833 -46.90856781 217.5217041 -47.82536316 217.31958008 C-55.95880358 215.60563123 -63.06805707 215.75738399 -71.1875 217.50390625 C-71.95437637 217.66233505 -72.72125275 217.82076385 -73.5113678 217.98399353 C-76.00928969 218.50231652 -78.5046032 219.03216538 -81 219.5625 C-82.75827144 219.93021734 -84.51665524 220.29739777 -86.27514648 220.6640625 C-98.16200575 223.15130346 -110.02973842 225.72582082 -121.88818359 228.3449707 C-134.20373734 231.06243281 -146.54331768 233.66156696 -158.88696289 236.24804688 C-160.02721672 236.4870874 -160.02721672 236.4870874 -161.19050598 236.73095703 C-162.678465 237.04254323 -164.16657058 237.35343048 -165.65483093 237.66357422 C-169.12476739 238.38828841 -172.59047924 239.1264857 -176.04980469 239.90039062 C-177.28891602 240.17560547 -178.52802734 240.45082031 -179.8046875 240.734375 C-180.88476074 240.97897461 -181.96483398 241.22357422 -183.07763672 241.47558594 C-189.91220572 242.70203992 -189.91220572 242.70203992 -192.77001953 240.85766602 C-193.56835205 240.06380493 -193.56835205 240.06380493 -194.3828125 239.25390625 C-194.98673828 238.66867187 -195.59066406 238.0834375 -196.21289062 237.48046875 C-196.84388672 236.84753906 -197.47488281 236.21460938 -198.125 235.5625 C-199.46881247 234.25909314 -200.81517692 232.95831229 -202.1640625 231.66015625 C-202.82051758 231.02609863 -203.47697266 230.39204102 -204.15332031 229.73876953 C-206.50295316 227.52643675 -208.96984728 225.50208781 -211.5 223.5 C-216.74762017 219.3143982 -221.58117549 214.76120798 -226.453125 210.15234375 C-230.03124189 206.78513212 -233.65583183 203.56618175 -237.5 200.5 C-243.48342421 195.72399323 -248.98775721 190.47720585 -254.5546875 185.23046875 C-257.67775922 182.28967421 -260.86272092 179.43600823 -264.11328125 176.63671875 C-266.43658787 174.62126228 -268.71748465 172.56151538 -271 170.5 C-273.98062721 167.81016569 -276.97245233 165.13689636 -280 162.5 C-283.89512811 159.10746907 -287.72782763 155.64805799 -291.5625 152.1875 C-293.69417481 150.27445851 -295.8401911 148.38112388 -298 146.5 C-301.89512811 143.10746907 -305.72782763 139.64805799 -309.5625 136.1875 C-311.69417481 134.27445851 -313.8401911 132.38112388 -316 130.5 C-319.02754767 127.86310364 -322.01937279 125.18983431 -325 122.5 C-330.44053674 117.59527369 -335.93453787 112.76184348 -341.50390625 108.00390625 C-342.13006836 107.46870361 -342.75623047 106.93350098 -343.40136719 106.38208008 C-344.65483829 105.31163369 -345.90936061 104.24241677 -347.16503906 103.17456055 C-347.74608398 102.67867432 -348.32712891 102.18278809 -348.92578125 101.671875 C-349.44567627 101.2294043 -349.96557129 100.78693359 -350.5012207 100.33105469 C-352.07460252 98.93374606 -353.59391607 97.56750667 -355 96 C-355 95.34 -355 94.68 -355 94 C-353.19018555 92.49462891 -353.19018555 92.49462891 -350.63671875 90.7265625 C-349.22737061 89.74598877 -349.22737061 89.74598877 -347.78955078 88.74560547 C-346.76587402 88.04580566 -345.74219727 87.34600586 -344.6875 86.625 C-343.63804199 85.90328613 -342.58858398 85.18157227 -341.50732422 84.43798828 C-280.36850741 42.62567123 -212.75858508 15.9096215 -140 3 C-139.08234863 2.83516113 -138.16469727 2.67032227 -137.21923828 2.50048828 C-131.49775779 1.49308163 -125.76608525 0.70369899 -120 0 C-118.43403076 -0.20302734 -118.43403076 -0.20302734 -116.83642578 -0.41015625 C-78.4311764 -5.22640557 -38.35717319 -5.15278441 0 0 Z " fill="#FCCC32" transform="translate(1021,282)"/>
<path d="M0 0 C0.89822983 0.17383209 1.79645966 0.34766418 2.72190857 0.52676392 C4.65662283 0.90160454 6.59095503 1.27842163 8.52493286 1.65704346 C13.77392939 2.68433022 19.02590893 3.69620344 24.27734375 4.7109375 C25.36339401 4.92124603 26.44944427 5.13155457 27.56840515 5.34823608 C39.03498127 7.56668488 50.51235524 9.72636767 61.9921875 11.875 C63.47641708 12.1531958 63.47641708 12.1531958 64.9906311 12.43701172 C75.58656386 14.4227668 86.18507357 16.39363854 96.7890625 18.3359375 C97.68362656 18.49994049 98.57819061 18.66394348 99.49986267 18.83291626 C103.69861866 19.60234805 107.89780904 20.36923842 112.09790039 21.13134766 C113.56918324 21.40000999 115.04045662 21.66872421 116.51171875 21.9375 C117.78249268 22.16824219 119.0532666 22.39898438 120.36254883 22.63671875 C123.4296875 23.25 123.4296875 23.25 126.4296875 24.25 C128.90319922 31.73818174 129.74755229 39.75147669 131.00390625 47.5234375 C131.25099678 49.03593941 131.49840476 50.54838949 131.74610901 52.06079102 C132.4045691 56.085876 133.05909961 60.11159047 133.71284485 64.13744354 C134.3873115 68.28682989 135.06523821 72.4356503 135.74316406 76.58447266 C135.87733671 77.40562246 136.01150936 78.22677227 136.14974785 79.0728054 C136.41979905 80.72550676 136.68986367 82.37820592 136.95994186 84.03090286 C137.36258833 86.49575822 137.76478243 88.96068707 138.16690063 91.42562866 C139.68460097 100.72449306 141.2171294 110.02065371 142.77734375 119.3125 C142.94558151 120.31503815 143.11381927 121.31757629 143.28715515 122.35049438 C144.0379123 126.81936447 144.79203649 131.2876435 145.54956055 135.75537109 C145.80654279 137.28221564 146.06346471 138.80907033 146.3203125 140.3359375 C146.53719727 141.6151709 146.75408203 142.8944043 146.97753906 144.21240234 C147.4296875 147.25 147.4296875 147.25 147.4296875 150.25 C128.10171645 157.72907298 108.64351461 164.83708821 89.16064453 171.90087891 C66.891964 179.97552874 44.65850438 188.14197881 22.43917847 196.35128784 C20.24830857 197.15944288 18.05669505 197.96558526 15.86428833 198.76956177 C10.60761281 200.69798705 5.36459306 202.65314377 0.14111328 204.66992188 C-0.85879135 205.04977234 -1.85869598 205.4296228 -2.88890076 205.82098389 C-4.7573194 206.53118555 -6.62125164 207.25336026 -8.47938538 207.99005127 C-17.71772028 211.46824128 -24.36243342 208.82315728 -33.28125 205.515625 C-34.86433456 204.93779015 -34.86433456 204.93779015 -36.47940063 204.34828186 C-39.97047944 203.07208091 -43.45786223 201.78608001 -46.9453125 200.5 C-49.40864595 199.59733198 -51.87219142 198.69524236 -54.3359375 197.79370117 C-61.44388191 195.19092149 -68.54728172 192.57587895 -75.64964294 189.95790863 C-78.76007404 188.81148497 -81.87078675 187.66582581 -84.98144531 186.52001953 C-94.54259896 182.99743017 -104.10342587 179.47396935 -113.66162109 175.94335938 C-125.28446457 171.65260783 -136.91586994 167.3878493 -148.5703125 163.18359375 C-149.67955078 162.7834053 -150.78878906 162.38321686 -151.93164062 161.97090149 C-157.17657287 160.08008764 -162.42316471 158.19402074 -167.671875 156.3137207 C-169.51302576 155.65186919 -171.35417188 154.99000475 -173.1953125 154.328125 C-174.03707031 154.02817123 -174.87882813 153.72821747 -175.74609375 153.41917419 C-181.45738258 151.36292992 -181.45738258 151.36292992 -182.5703125 150.25 C-183.09005 142.4709781 -181.63935241 135.10564581 -180.17739868 127.4972229 C-179.75088839 125.27644718 -179.33436234 123.0540046 -178.9206543 120.83081055 C-178.37888632 117.91994944 -177.83460218 115.00958254 -177.28808594 112.09960938 C-175.4766721 102.3845164 -173.86897148 92.66251169 -172.60400391 82.86132812 C-170.6936109 68.10630403 -167.97971366 53.51765569 -165.24951172 38.89697266 C-164.34077114 34.01747348 -163.45257546 29.13434694 -162.5703125 24.25 C-146.13248168 20.71259609 -129.66487024 17.4958803 -113.10690308 14.57672119 C-95.73454826 11.50941717 -78.41618511 8.17715838 -61.10131836 4.80175781 C-55.9481586 3.79856526 -50.7924579 2.80962476 -45.63427734 1.83258057 C-43.5583023 1.43785583 -41.483124 1.03892172 -39.40869141 0.63616943 C-36.31919037 0.03903046 -33.22667782 -0.53923797 -30.1328125 -1.11328125 C-28.75754395 -1.38424873 -28.75754395 -1.38424873 -27.35449219 -1.66069031 C-17.90971659 -3.37215425 -9.31262464 -1.84352851 0 0 Z " fill="#EEA2C1" transform="translate(979.5703125,786.75)"/>
<path d="M0 0 C5.58036604 4.1074709 10.98362591 8.38483256 16.3125 12.8125 C17.81889997 14.05872726 19.32541019 15.30482128 20.83203125 16.55078125 C21.55213379 17.14713379 22.27223633 17.74348633 23.01416016 18.35791016 C25.50167143 20.41483182 27.99944371 22.45896401 30.5 24.5 C38.77029712 31.25865671 47.00548082 38.06012038 55.24804688 44.85253906 C57.45690628 46.67267779 59.66591864 48.49263067 61.875 50.3125 C62.58398438 50.89668701 63.29296875 51.48087402 64.0234375 52.08276367 C68.0492405 55.39849117 72.0832892 58.70368668 76.125 62 C77.38957031 63.05380859 77.38957031 63.05380859 78.6796875 64.12890625 C80.94217094 66.00682952 80.94217094 66.00682952 83.2578125 67.52734375 C85.23766029 68.92876542 86.58496022 70.03437301 88 72 C88.49092725 79.09975497 86.04737382 86.55675935 84.3125 93.375 C82.10055613 102.32598176 80.02947885 111.2910792 78.125 120.3125 C75.80720506 131.26317419 73.42980194 142.19868138 71 153.125 C70.82808136 153.89812531 70.65616272 154.67125061 70.47903442 155.46780396 C68.15135284 165.92467397 65.77719897 176.36977521 63.3527832 186.8046875 C61.08841624 196.56859578 58.88464414 206.34579414 56.6875 216.125 C56.40122238 217.39917786 56.40122238 217.39917786 56.10916138 218.69909668 C55.13013163 223.05744099 54.15163094 227.41590389 53.17333984 231.77441406 C51.47160311 239.35495778 49.76543266 246.93450357 48.05947876 254.51409912 C47.12279304 258.6760227 46.18641238 262.83801491 45.25 267 C44.87500145 268.66666699 44.50000145 270.33333366 44.125 272 C43.8465625 273.2375 43.8465625 273.2375 43.5625 274.5 C34 317 24.4375 359.5 14.875 402 C14.68939011 402.82493454 14.50378021 403.64986908 14.31254578 404.49980164 C13.93739609 406.16713017 13.5622435 407.83445805 13.18708801 409.50178528 C12.25185438 413.65832002 11.31667061 417.81486597 10.3815918 421.97143555 C8.66714551 429.59217852 6.95231334 437.21283373 5.23561096 444.83306885 C4.64720776 447.44514949 4.05906764 450.05728926 3.47094727 452.66943359 C2.70824257 456.05673387 1.94428248 459.44374749 1.17944336 462.83056641 C-0.51947121 470.36130456 -2.20235987 477.89450894 -3.828125 485.44140625 C-4.10309814 486.70944092 -4.37807129 487.97747559 -4.66137695 489.28393555 C-5.16372053 491.60824247 -5.66005229 493.93386028 -6.14916992 496.26098633 C-6.47558472 497.76761841 -6.47558472 497.76761841 -6.80859375 499.3046875 C-7.08401001 500.6038208 -7.08401001 500.6038208 -7.36499023 501.92919922 C-8 504 -8 504 -10 506 C-52.8392193 434.43330423 -72.81570378 350.84621551 -75 268 C-75.02336426 267.20803223 -75.04672852 266.41606445 -75.07080078 265.60009766 C-77.3283917 179.90649962 -53.04653168 94.76782709 -12.5625 19.8125 C-12.10302979 18.95873779 -11.64355957 18.10497559 -11.17016602 17.2253418 C-7.84254777 11.18882026 -4.04404361 5.57857742 0 0 Z " fill="#FCCC32" transform="translate(542,512)"/>
<path d="M0 0 C3.06881884 2.85298707 5.18861469 5.68358844 7.28515625 9.3046875 C7.89246582 10.35100342 8.49977539 11.39731934 9.12548828 12.4753418 C9.76470215 13.597229 10.40391602 14.71911621 11.0625 15.875 C11.39425232 16.45545074 11.72600464 17.03590149 12.06781006 17.63394165 C53.68611203 90.56519204 75.79751124 174.81722058 59.15234375 389.84033203 C49.5437742 424.75497635 36.32210548 457.70373084 20 490 C19.55156738 490.8873584 19.10313477 491.7747168 18.64111328 492.68896484 C12.49633998 504.75183001 12.49633998 504.75183001 10 506 C-4.38044456 442.6355903 -18.676443 379.25265478 -32.90743124 315.85454535 C-34.22387245 309.98989849 -35.54034581 304.12525885 -36.85685086 298.26062632 C-37.18387151 296.80383625 -37.51088691 295.34704501 -37.83789706 293.89025259 C-43.8830798 266.95972217 -49.94388642 240.03273863 -56.01287174 213.10756111 C-57.82174847 205.0818243 -59.62881463 197.05568151 -61.43481445 189.02929688 C-62.42005218 184.65103436 -63.40533436 180.27278185 -64.390625 175.89453125 C-64.6284841 174.83747105 -64.86634319 173.78041084 -65.11141014 172.69131851 C-67.86373098 160.46143949 -70.62451719 148.23354301 -73.40151787 136.00924301 C-75.07535786 128.64087181 -76.74398806 121.27133639 -78.40829659 113.90080643 C-79.52797984 108.94417493 -80.65512601 103.98932742 -81.78847504 99.03580379 C-82.46290848 96.07959789 -83.12994439 93.12176219 -83.79471588 90.16337013 C-84.09923021 88.8153114 -84.40685601 87.46795108 -84.71785736 86.12137413 C-85.13676408 84.30587219 -85.54358381 82.48759372 -85.94970703 80.66918945 C-86.1785257 79.6627388 -86.40734436 78.65628815 -86.64309692 77.61933899 C-87.00480259 74.96475344 -87.004643 73.46663402 -86 71 C-83.91916902 68.97485323 -81.8653011 67.14297208 -79.625 65.3125 C-78.99231201 64.78358154 -78.35962402 64.25466309 -77.70776367 63.7097168 C-75.81303177 62.13001778 -73.90808881 60.5635233 -72 59 C-71.01386719 58.1853125 -70.02773437 57.370625 -69.01171875 56.53125 C-66.34987132 54.34321912 -63.67657371 52.16997928 -61 50 C-53.73591122 44.07196464 -46.49504879 38.11609871 -39.25927734 32.15356445 C-34.50158095 28.2339375 -29.73482412 24.3256794 -24.9609375 20.42578125 C-20.27295191 16.58509648 -15.59817423 12.72836249 -10.92382812 8.87109375 C-7.30394671 5.88645615 -3.67424726 2.91778459 0 0 Z " fill="#EFAE0C" transform="translate(1380,512)"/>
<path d="M0 0 C-3.01227926 12.45600113 -6.41453825 24.78359617 -9.91796875 37.109375 C-10.49456298 39.14487251 -11.07093803 41.18043212 -11.64710999 43.21604919 C-13.17644888 48.61696042 -14.70874636 54.01702793 -16.24165344 59.41692734 C-17.8246634 64.9953028 -19.40487869 70.57446976 -20.98535156 76.15356445 C-23.49252306 85.00269161 -26.00119741 93.85139114 -28.51123047 102.69970703 C-31.55306124 113.42276533 -34.59193445 124.1466584 -37.62890625 134.87109375 C-38.43268291 137.70931433 -39.23647847 140.54752956 -40.0402832 143.38574219 C-40.22740844 144.04648554 -40.41453367 144.70722889 -40.60732937 145.38799477 C-43.40301414 155.25919368 -46.20133872 165.12964462 -49 175 C-50.02246826 175.2266333 -51.04493652 175.4532666 -52.09838867 175.68676758 C-55.95463344 176.54167344 -59.81071328 177.39732129 -63.66674805 178.25317383 C-65.32393091 178.62088385 -66.98115625 178.9884025 -68.63842773 179.35571289 C-78.43591245 181.5273356 -88.22694536 183.72045878 -98 186 C-96.07667265 188.63235784 -94.15257128 191.2641341 -92.2265625 193.89453125 C-89.62151509 197.52788684 -87.16087263 201.24678562 -84.73828125 205.00390625 C-82.69337679 207.35209991 -80.93855559 208.07387941 -78 209 C-81.99457454 213.15714443 -86.27935803 216.8028609 -90.75 220.4375 C-92.26829544 221.67960649 -93.78652262 222.92179643 -95.3046875 224.1640625 C-96.08038086 224.79731445 -96.85607422 225.43056641 -97.65527344 226.08300781 C-101.40445896 229.14825196 -105.13897281 232.2312448 -108.875 235.3125 C-114.26981376 239.75696667 -119.67357839 244.1901902 -125.0859375 248.61328125 C-131.73645916 254.06029028 -138.36587529 259.53304319 -145 265 C-162.87293766 279.72848078 -162.87293766 279.72848078 -170.03515625 285.56640625 C-172.46868599 287.5638885 -174.89074169 289.57348583 -177.30859375 291.58984375 C-178.07171875 292.2240625 -178.83484375 292.85828125 -179.62109375 293.51171875 C-181.13805808 294.77287122 -182.65248482 296.03708376 -184.1640625 297.3046875 C-184.86144531 297.88347656 -185.55882812 298.46226562 -186.27734375 299.05859375 C-186.89859131 299.57736084 -187.51983887 300.09612793 -188.15991211 300.63061523 C-190.02778597 302.02067819 -191.88990329 303.02554865 -194 304 C-192.33993592 287.81632731 -189.77505973 271.75347371 -187.31772232 255.67650223 C-186.93291544 253.15748864 -186.54914229 250.63831941 -186.1656189 248.11911011 C-176.59024305 185.24858919 -166.70682662 122.41970275 -156.51098633 59.64672852 C-154.90968123 49.77642925 -153.35415987 39.90791872 -152 30 C-148.16143733 28.66194438 -144.40263039 27.58094891 -140.41719055 26.78588867 C-138.78790367 26.45794815 -138.78790367 26.45794815 -137.1257019 26.12338257 C-135.94895905 25.89059601 -134.77221619 25.65780945 -133.55981445 25.41796875 C-132.30864334 25.16729645 -131.05747223 24.91662415 -129.76838684 24.65835571 C-126.34731352 23.97306009 -122.92530768 23.29253181 -119.50310159 22.61291885 C-115.90959292 21.89849143 -112.31693189 21.17982587 -108.72416687 20.46166992 C-102.68649105 19.25542327 -96.64825441 18.0520198 -90.60961914 16.85058594 C-82.88648192 15.3139972 -75.16422302 13.77304239 -67.44225788 12.23057556 C-60.77510794 10.89881409 -54.10761737 9.56876101 -47.44004035 8.23913956 C-46.01619095 7.95517654 -44.59235277 7.67115725 -43.16852593 7.38708115 C-38.47501591 6.4506573 -33.78116989 5.51593725 -29.0871582 4.58203125 C-27.9205365 4.34924469 -26.75391479 4.11645813 -25.55194092 3.87661743 C-22.36925395 3.24421951 -19.18522071 2.61949989 -16 2 C-14.47580979 1.70094254 -14.47580979 1.70094254 -12.92082787 1.39584351 C-11.95515703 1.21196075 -10.9894862 1.028078 -9.99455261 0.83862305 C-9.14971408 0.67629684 -8.30487555 0.51397064 -7.43443584 0.34672546 C-4.92336404 -0.01091491 -2.53288434 -0.06068013 0 0 Z " fill="#EFA3C1" transform="translate(1462,300)"/>
<path d="M0 0 C8.5169687 0.55687052 16.72634492 1.97618922 25.08447266 3.66796875 C26.46366941 3.94283467 27.84296523 4.21720393 29.22235107 4.49111938 C32.93346579 5.22961168 36.64311053 5.97524811 40.35247469 6.72247696 C44.24298036 7.50513153 48.13468158 8.28179923 52.0262146 9.05932617 C58.54806935 10.36334521 65.06899331 11.6719378 71.58935547 12.98339844 C79.13364827 14.50075628 86.67929078 16.01124852 94.22570002 17.51804256 C101.4938486 18.96939882 108.76111985 20.4251004 116.02796555 21.88296509 C119.11939454 22.50311111 122.21110969 23.12180111 125.30305862 23.73934937 C128.93339768 24.46466652 132.56295012 25.19379673 136.19191742 25.92594528 C138.16516163 26.32311249 140.13916822 26.71648595 142.1131897 27.10977173 C143.27664917 27.34529755 144.44010864 27.58082336 145.63882446 27.82348633 C147.16462348 28.12987785 147.16462348 28.12987785 148.72124672 28.44245911 C151 29 151 29 152 30 C152.41994929 32.2565438 152.78116251 34.52403032 153.11987305 36.79418945 C153.22742416 37.50704102 153.33497528 38.21989258 153.44578552 38.9543457 C153.68060515 40.51457243 153.91348091 42.07509262 154.14468956 43.63585854 C154.51653174 46.1457686 154.89336964 48.65488495 155.2714386 51.16386414 C155.94496686 55.63928927 156.61402859 60.11536915 157.28167725 64.5916748 C158.4574552 72.4746391 159.63734108 80.35698017 160.82421875 88.23828125 C160.95652012 89.1169668 161.08882149 89.99565235 161.22513199 90.90096474 C162.98995518 102.59739673 164.84352412 114.27443253 166.81640625 125.9375 C170.755814 149.23127861 174.38199555 172.57491192 178.03320312 195.9152832 C179.05396966 202.43959874 180.07937153 208.96317686 181.10588455 215.48659039 C181.90771455 220.58668839 182.70656695 225.68724959 183.50460052 230.78794289 C183.88148872 233.19392854 184.25939279 235.59975533 184.63840485 238.00540733 C186.50811659 249.88047131 188.31539136 261.73676726 189.62065125 273.68856812 C190.09377225 277.81856183 190.78346434 281.85470053 191.5625 285.9375 C192.67949732 291.94979898 193.51606312 297.90239535 194 304 C189.86993785 301.70212808 186.36594516 298.89869364 182.8125 295.8125 C181.64802024 294.81407126 180.48264918 293.81668115 179.31640625 292.8203125 C178.74809082 292.3346582 178.17977539 291.84900391 177.59423828 291.34863281 C175.5115926 289.58683576 173.38789682 287.88168238 171.25 286.1875 C164.40425707 280.76004312 157.69188979 275.16959359 150.95361328 269.60986328 C148.47431339 267.56681111 145.9881283 265.532288 143.5 263.5 C135.22970288 256.74134329 126.99451918 249.93987962 118.75195312 243.14746094 C114.45537781 239.60700783 110.15754095 236.06809702 105.85839844 232.53076172 C104.21886961 231.18028277 102.58189288 229.82670677 100.9453125 228.47265625 C96.00508474 224.39875829 91.00543735 220.41321744 85.9375 216.5 C85.37643555 216.0659082 84.81537109 215.63181641 84.23730469 215.18457031 C81.25070284 212.88749064 81.25070284 212.88749064 78 211 C78 210.34 78 209.68 78 209 C79.27423828 208.55527344 79.27423828 208.55527344 80.57421875 208.1015625 C85.47580337 205.65005 87.92979448 200.84533012 90.8125 196.375 C91.96441187 194.63252692 93.11673333 192.89032451 94.26953125 191.1484375 C94.77073486 190.37677246 95.27193848 189.60510742 95.78833008 188.81005859 C97 187 97 187 98 186 C96.97753174 185.7733667 95.95506348 185.5467334 94.90161133 185.31323242 C91.04536656 184.45832656 87.18928672 183.60267871 83.33325195 182.74682617 C81.67606909 182.37911615 80.01884375 182.0115975 78.36157227 181.64428711 C68.56408755 179.4726644 58.77305464 177.27954122 49 175 C40.04648095 144.24298517 31.28662149 113.43741818 22.69426346 82.57790756 C21.69616464 78.99327513 20.69778901 75.40871988 19.69921875 71.82421875 C19.50310501 71.12014893 19.30699127 70.4160791 19.10493469 69.69067383 C16.24841422 59.43866373 13.36484152 49.19460847 10.45703125 38.95703125 C10.10192474 37.70626297 9.74681824 36.45549469 9.38095093 35.16682434 C7.71369044 29.29765121 6.04267572 23.42957352 4.3671875 17.56274414 C3.78249771 15.50799073 3.19785905 13.45322277 2.61328125 11.3984375 C2.34554398 10.46550369 2.0778067 9.53256989 1.80195618 8.57136536 C1.56220566 7.72716537 1.32245514 6.88296539 1.07543945 6.01318359 C0.86627396 5.28118744 0.65710846 4.54919128 0.44160461 3.79501343 C0 2 0 2 0 0 Z " fill="#EFA3C1" transform="translate(461,300)"/>
<path d="M0 0 C19.34099717 6.4968848 38.4737132 13.54456865 57.6161499 20.59991455 C58.70188293 21.00006775 59.78761597 21.40022095 60.90625 21.8125 C62.01502502 22.22119324 63.12380005 22.62988647 64.26617432 23.05096436 C78.20964796 28.18728199 92.16897505 33.28018299 106.12817764 38.37355804 C108.15648988 39.11368448 110.18474644 39.85396327 112.21298218 40.59429932 C112.86613687 40.83269217 113.51929155 41.07108501 114.19223881 41.31670189 C115.49229279 41.79125056 116.79231332 42.26589089 118.09229946 42.74062538 C121.22314696 43.88370826 124.35487518 45.02421895 127.48796082 46.16116333 C133.18736765 48.23091476 138.87453746 50.32379111 144.53759766 52.49121094 C145.547845 52.87300507 146.55809235 53.25479919 147.59895325 53.64816284 C149.46010405 54.3528751 151.31718881 55.06846992 153.16899109 55.7973938 C153.98761124 56.1051474 154.80623138 56.412901 155.6496582 56.72998047 C156.350168 57.00115692 157.0506778 57.27233337 157.77241516 57.55172729 C162.59314745 58.52183746 167.14401963 56.73310903 171.65161133 55.10839844 C172.75056229 54.71501785 173.84951324 54.32163727 174.98176575 53.91633606 C176.16985336 53.48503891 177.35794098 53.05374176 178.58203125 52.609375 C179.85298063 52.1519605 181.12407715 51.69495467 182.39530945 51.23832703 C185.82369166 50.00519958 189.24961294 48.76536715 192.67501831 47.52399826 C195.53478729 46.48845432 198.39589986 45.45664994 201.25696754 44.42470074 C225.95094512 35.51608837 250.59648421 26.47588807 275.21875 17.37109375 C276.25637985 16.98772858 277.2940097 16.6043634 278.36308289 16.2093811 C282.92582009 14.5207678 287.48361951 12.82170762 292.02734375 11.08251953 C292.77729614 10.79651382 293.52724854 10.51050812 294.29992676 10.21583557 C296.23615438 9.47521869 298.16995653 8.72826892 300.10351562 7.98071289 C303 7 303 7 306 7 C304.59640661 11.53478603 302.78677826 15.74776726 300.69140625 19.99609375 C300.36908524 20.65736771 300.04676422 21.31864166 299.7146759 21.99995422 C299.02508792 23.41372463 298.33383428 24.82668361 297.64105225 26.2388916 C296.17760102 29.2221093 294.72217801 32.20921923 293.26629639 35.19613647 C292.5346541 36.69700945 291.80259903 38.19768126 291.07012939 39.69815063 C288.14079577 45.70075914 285.24742072 51.71994202 282.375 57.75 C278.27590697 66.34592291 274.14439895 74.92586193 270 83.5 C265.81525338 92.15807703 261.64254567 100.82162415 257.5 109.5 C253.37730364 118.13621304 249.22616292 126.75847991 245.0625 135.375 C240.65580347 144.49480015 236.25634801 153.6179839 231.875 162.75 C231.38563965 163.7699707 230.8962793 164.78994141 230.39208984 165.84082031 C228.4464246 169.89713599 226.50140165 173.95375887 224.55712891 178.01074219 C218.54233297 190.56106039 212.50455695 203.09988187 206.4375 215.625 C201.15163176 226.53756698 195.89543103 237.46368395 190.671875 248.40625 C187.31610219 255.4359726 183.94591183 262.45877255 180.56982422 269.47875977 C177.92586879 274.97803209 175.29394094 280.48263171 172.6796875 285.99609375 C172.13691162 287.1370752 171.59413574 288.27805664 171.03491211 289.45361328 C169.99307362 291.64429247 168.95465914 293.83660431 167.92016602 296.03076172 C167.45022217 297.01705566 166.98027832 298.00334961 166.49609375 299.01953125 C165.88012329 300.32047729 165.88012329 300.32047729 165.25170898 301.64770508 C164 304 164 304 161 308 C161 268.73 161 229.46 161 189 C157.7 189 154.4 189 151 189 C137.51909291 186.00103885 126.04590825 178.18663559 118 167 C110.16639223 154.00333256 106.35551329 139.55018459 109.796875 124.51953125 C111.16874814 120.27200096 112.76637173 116.4361061 114.875 112.5 C116.29698273 110.11851474 116.29698273 110.11851474 115.296875 108.08203125 C111.62335023 102.18447491 105.68412737 97.66697147 100.45703125 93.171875 C97.11857384 90.22086972 93.87507877 87.17270323 90.625 84.125 C85.61364582 79.42816338 80.56935913 74.77772444 75.44921875 70.19921875 C71.11123675 66.30402917 66.82547426 62.3515627 62.53222656 58.40722656 C60.02322894 56.10291453 57.51152943 53.80155179 55 51.5 C51.97517639 48.72806824 48.95099403 45.95545292 45.9296875 43.1796875 C41.36970022 38.99212221 36.80264097 34.81442771 32.1875 30.6875 C27.90561608 26.84690524 23.6984844 22.93111823 19.5 19 C10.41530633 9.54023079 10.41530633 9.54023079 0 2 C0 1.34 0 0.68 0 0 Z " fill="#FECEDD" transform="translate(800,938)"/>
<path d="M0 0 C4.81545957 3.4145986 9.12265916 6.98502875 13.23046875 11.22265625 C15.65251053 13.65539137 18.23381391 15.8757853 20.83203125 18.1171875 C23.24842951 20.2157532 25.62529024 22.354397 28 24.5 C30.98062721 27.18983431 33.97245233 29.86310364 37 32.5 C40.08133805 35.1875768 43.14098275 37.89798455 46.1875 40.625 C46.98542969 41.33914063 47.78335938 42.05328125 48.60546875 42.7890625 C51.1394153 45.12872604 53.56141404 47.56141404 56 50 C61.5668453 55.17575153 67.23571822 60.23656492 72.97265625 65.22265625 C75.33489173 67.29359487 77.66795853 69.39512848 80 71.5 C82.98062721 74.18983431 85.97245233 76.86310364 89 79.5 C92.89512811 82.89253093 96.72782763 86.35194201 100.5625 89.8125 C102.69417481 91.72554149 104.8401911 93.61887612 107 95.5 C110.89512811 98.89253093 114.72782763 102.35194201 118.5625 105.8125 C120.69417481 107.72554149 122.8401911 109.61887612 125 111.5 C128.89512811 114.89253093 132.72782763 118.35194201 136.5625 121.8125 C138.69417481 123.72554149 140.8401911 125.61887612 143 127.5 C146.02754767 130.13689636 149.01937279 132.81016569 152 135.5 C157.32334693 140.29907792 162.68863339 145.0407795 168.15234375 149.6796875 C174.67447125 155.22500924 181.0648826 160.86400943 187.31738281 166.71191406 C191.42360428 170.5282258 195.7113754 174.05710875 200.08984375 177.55859375 C204.32835599 181.11439261 208.33041005 184.91431523 212.31811523 188.74780273 C215.74678709 192.0178099 215.74678709 192.0178099 220 194 C221.6875 196.5625 221.6875 196.5625 223 199 C172.94174586 220.31474481 172.94174586 220.31474481 153.73681641 228.421875 C150.04161844 229.98203295 146.34734527 231.54437523 142.65304565 233.10665894 C120.67718262 242.39937904 98.68834026 251.66016828 76.67407227 260.86157227 C75.84208817 261.20943283 75.01010406 261.5572934 74.15290833 261.91569519 C72.52314708 262.59674907 70.89309799 263.2771146 69.26274109 263.95674133 C65.04791584 265.71568036 60.84186428 267.49280881 56.64550781 269.29541016 C55.77386993 269.66801468 54.90223206 270.0406192 54.00418091 270.42451477 C52.33662295 271.1381128 50.67089011 271.85599577 49.0072937 272.57878113 C48.26254791 272.89672134 47.51780212 273.21466156 46.75048828 273.54223633 C46.09670197 273.82448563 45.44291565 274.10673492 44.76931763 274.39753723 C43 275 43 275 40 275 C40.2626062 274.15223999 40.2626062 274.15223999 40.53051758 273.28735352 C41.04943842 270.7591323 40.89318851 268.94833586 40.51171875 266.40234375 C40.38216797 265.51740234 40.25261719 264.63246094 40.11914062 263.72070312 C39.97669922 262.80224609 39.83425781 261.88378906 39.6875 260.9375 C39.55666016 260.04611328 39.42582031 259.15472656 39.29101562 258.23632812 C38.63254411 253.82425084 37.89462292 249.43794151 37.0715332 245.05371094 C35.95798292 238.95754568 35.10128292 232.83599725 34.2568512 226.6976223 C30.68276208 200.83996968 26.52464502 175.06805137 22.4603138 149.28407586 C21.60526787 143.85855792 20.75301693 138.43260398 19.90152597 133.00652713 C18.95942642 127.0033014 18.01566024 121.00033902 17.07115173 114.99749184 C16.67859793 112.50199131 16.28637957 110.00643799 15.89454651 107.5108242 C13.39344246 91.58982006 10.80175533 75.68592642 8.13386536 59.79216003 C6.57994798 50.51998473 5.08827504 41.23818312 3.63208008 31.95019531 C3.32942832 30.02691903 3.02398024 28.10408116 2.71606445 26.18164062 C2.25658654 23.31210239 1.80512306 20.44140442 1.35546875 17.5703125 C1.21803757 16.72139435 1.08060638 15.8724762 0.93901062 14.99783325 C0.15745175 9.93374309 -0.12761645 5.12451746 0 0 Z " fill="#FECEDD" transform="translate(613,330)"/>
<path d="M0 0 C-0.48561106 9.30180732 -1.56067083 18.31411152 -3.11028481 27.49917984 C-5.88411345 43.96441859 -8.51570704 60.45148006 -11.11328125 76.9453125 C-11.50592524 79.43537907 -11.8985695 81.9254456 -12.29121399 84.41551208 C-16.37789258 110.34822098 -20.42777644 136.28667421 -24.46704102 162.22680664 C-25.28525829 167.48116242 -26.10425897 172.73539503 -26.92407227 177.98950195 C-28.14213256 185.79617741 -29.35881358 193.60306697 -30.57421875 201.41015625 C-30.76817104 202.65587025 -30.96212334 203.90158424 -31.16195297 205.18504715 C-33.9243092 222.93997568 -36.63776719 240.7015515 -39.25309753 258.47877502 C-39.42264859 259.62427543 -39.42264859 259.62427543 -39.59562492 260.79291725 C-39.89310303 262.803446 -40.18838587 264.81429924 -40.48347473 266.82518005 C-40.88152766 269.27181038 -41.3391296 271.61470406 -42 274 C-47.32013776 273.39484091 -51.66233494 271.62818055 -56.5078125 269.4921875 C-57.33298874 269.13513229 -58.15816498 268.77807709 -59.00834656 268.41020203 C-60.78663033 267.64008158 -62.56364532 266.86702604 -64.33950806 266.09133911 C-69.10181066 264.01178726 -73.87381865 261.95469755 -78.64453125 259.89453125 C-79.61092026 259.47652756 -80.57730927 259.05852386 -81.57298279 258.62785339 C-90.28807773 254.86271147 -99.041717 251.19561979 -107.8125 247.5625 C-110.75814936 246.34065428 -113.70342101 245.11790156 -116.6484375 243.89453125 C-117.39436661 243.58467285 -118.14029572 243.27481445 -118.90882874 242.95556641 C-128.60088077 238.92468254 -138.26884132 234.83659856 -147.9375 230.75 C-148.86867645 230.35644318 -149.79985291 229.96288635 -150.75924683 229.55740356 C-154.55940806 227.95112276 -158.35946348 226.34459206 -162.15934753 224.73765564 C-169.31207586 221.71291379 -176.46624172 218.69158967 -183.62109375 215.671875 C-184.65324509 215.2362323 -185.68539642 214.8005896 -186.74882507 214.35174561 C-190.77057622 212.65429929 -194.79234289 210.95688982 -198.81417847 209.25964355 C-201.56109197 208.10036174 -204.30790134 206.9408335 -207.0546875 205.78125 C-208.26257179 205.27159698 -208.26257179 205.27159698 -209.49485779 204.75164795 C-214.00264825 202.84838463 -218.50433063 200.9317271 -223 199 C-221.54755629 196.17155699 -220.55668413 194.32832603 -217.78125 192.69140625 C-214.3252067 190.58962711 -211.60906306 188.02696958 -208.6875 185.25 C-207.52936156 184.16460038 -206.3705104 183.07996075 -205.2109375 181.99609375 C-204.37900879 181.21661377 -204.37900879 181.21661377 -203.53027344 180.42138672 C-201.05676897 178.12388464 -198.50958561 175.9156625 -195.95703125 173.70703125 C-193.6144085 171.66366569 -191.30726578 169.58319141 -189 167.5 C-185.38323655 164.23609152 -181.73610392 161.01209051 -178.0625 157.8125 C-175.69035571 155.72788836 -173.34443935 153.61571356 -171 151.5 C-167.38323655 148.23609152 -163.73610392 145.01209051 -160.0625 141.8125 C-157.69035571 139.72788836 -155.34443935 137.61571356 -153 135.5 C-149.37976277 132.23295665 -145.73016435 129.00479224 -142.05078125 125.8046875 C-139.73911203 123.77041859 -137.4646857 121.6977769 -135.1875 119.625 C-131.83198275 116.59026816 -128.41161818 113.6958109 -124.875 110.875 C-119.27148201 106.34754877 -114.05059067 101.45649907 -108.83349609 96.49169922 C-104.90266387 92.7548844 -100.90282579 89.12586208 -96.8059082 85.57177734 C-94.56788667 83.62390893 -92.37725933 81.62684653 -90.1875 79.625 C-86.81059018 76.57141133 -83.36782868 73.65570795 -79.8125 70.8125 C-74.3698364 66.41799558 -69.28465086 61.68890592 -64.21411133 56.87231445 C-60.91719079 53.74768999 -57.57902966 50.80484239 -54 48 C-51.79508605 45.8531101 -49.63799338 43.66989305 -47.515625 41.44140625 C-44.16823521 37.99040678 -40.68975475 34.8834157 -36.9375 31.875 C-31.11000052 27.18731447 -25.68328925 22.12976569 -20.23046875 17.015625 C-17.15119727 14.12941966 -14.01355884 11.32161983 -10.81640625 8.56640625 C-9.46079219 7.39737133 -8.11616322 6.21557544 -6.77734375 5.02734375 C-5.68099609 4.05474609 -5.68099609 4.05474609 -4.5625 3.0625 C-3.90378906 2.47597656 -3.24507812 1.88945312 -2.56640625 1.28515625 C-1 0 -1 0 0 0 Z " fill="#FBDDE9" transform="translate(1310,330)"/>
<path d="M0 0 C0 69.63 0 139.26 0 211 C-7.87493207 209.8750097 -7.87493207 209.8750097 -11.66357422 208.47558594 C-12.52241714 208.16221283 -13.38126007 207.84883972 -14.26612854 207.52597046 C-15.186353 207.18224396 -16.10657745 206.83851746 -17.0546875 206.484375 C-18.04335312 206.12139313 -19.03201874 205.75841125 -20.05064392 205.38442993 C-23.32785421 204.17942616 -26.60136607 202.96468249 -29.875 201.75 C-32.19597051 200.89470119 -34.51718304 200.04005884 -36.83862305 199.18603516 C-42.35872996 197.15365876 -47.87660807 195.11532942 -53.39336872 193.07388878 C-63.67133312 189.27095621 -73.95487443 185.48312331 -84.23760986 181.69311523 C-87.80507807 180.37773658 -91.37204415 179.06100313 -94.93896484 177.74414062 C-106.61668379 173.43573309 -118.30315901 169.15364025 -130.01171875 164.9296875 C-131.12021683 164.52974579 -132.2287149 164.12980408 -133.37080383 163.71774292 C-138.61232327 161.82803435 -143.85549384 159.94305218 -149.10083008 158.06396484 C-150.94222468 157.4020311 -152.78361492 156.74008524 -154.625 156.078125 C-155.46677292 155.7781662 -156.30854584 155.4782074 -157.17582703 155.16915894 C-162.88707291 153.11292709 -162.88707291 153.11292709 -164 152 C-164.5197375 144.2209781 -163.06903991 136.85564581 -161.60708618 129.2472229 C-161.18057589 127.02644718 -160.76404984 124.8040046 -160.3503418 122.58081055 C-159.80857382 119.66994944 -159.26428968 116.75958254 -158.71777344 113.84960938 C-156.9063596 104.1345164 -155.29865898 94.41251169 -154.03369141 84.61132812 C-152.1232984 69.85630403 -149.40940116 55.26765569 -146.67919922 40.64697266 C-145.77045864 35.76747348 -144.88226296 30.88434694 -144 26 C-128.35862792 22.63399317 -112.6934135 19.52863008 -96.9375 16.75 C-77.48590969 13.31878133 -58.09366093 9.59805045 -38.70259094 5.84136963 C-35.64725722 5.25002335 -32.59146593 4.6610857 -29.53564453 4.07226562 C-26.08595174 3.40694711 -22.63918333 2.72947746 -19.19482422 2.03710938 C-17.78483824 1.75907651 -16.37484533 1.48107878 -14.96484375 1.203125 C-13.79429443 0.96754883 -12.62374512 0.73197266 -11.41772461 0.48925781 C-8 0 -8 0 0 0 Z " fill="#E28FAF" transform="translate(961,785)"/>
<path d="M0 0 C19.09542569 5.07286687 37.95865725 10.9975267 56.84375 16.79296875 C65.99758961 19.59700748 75.15788771 22.34839395 84.375 24.9375 C94.22992365 27.71210511 103.96904665 30.81498226 113.70703125 33.97265625 C128.15658776 38.6467336 142.68707052 43.0660834 157.20825195 47.51123047 C160.42886096 48.4973548 163.64900853 49.48497588 166.86914062 50.47265625 C177.35632686 53.68578825 187.84986298 56.86844038 198.38183594 59.93188477 C202.20587334 61.0607757 206.00910469 62.24101103 209.8125 63.4375 C210.91029785 63.78276733 210.91029785 63.78276733 212.03027344 64.13500977 C212.90474121 64.41042603 212.90474121 64.41042603 213.796875 64.69140625 C218.37400986 66.12420131 222.96718788 67.50181261 227.5625 68.875 C237.74465807 71.91785342 247.9116064 75.00943403 258.07666016 78.10888672 C262.88392842 79.57427249 267.69200526 81.03699998 272.5 82.5 C274.40364779 83.07942066 276.30729362 83.65884775 278.2109375 84.23828125 C282.17431357 85.44455546 286.13788019 86.65020122 290.1015625 87.85546875 C291.60348145 88.31300537 291.60348145 88.31300537 293.13574219 88.77978516 C295.10661372 89.37825791 297.07860074 89.97307113 299.05175781 90.56396484 C303.05317628 91.76661108 307.02877797 92.97544098 310.9453125 94.43359375 C312.03585937 94.82675781 313.12640625 95.21992187 314.25 95.625 C315.12140625 95.96789063 315.9928125 96.31078125 316.890625 96.6640625 C321.92991356 97.20850825 326.21248981 95.50018649 331 94 C332.36145961 93.58925699 333.72347705 93.18036008 335.0859375 92.77294922 C339.23897439 91.52740721 343.38610303 90.26313381 347.53219604 88.99468994 C350.48984443 88.08986601 353.44809808 87.18704416 356.40649414 86.28466797 C360.85174676 84.92866274 365.29678092 83.57194443 369.74169922 82.21484375 C382.24930499 78.39710719 394.76057367 74.59138852 407.27139282 70.78419876 C409.45389417 70.12001086 411.63637449 69.45575391 413.81884766 68.79147339 C445.78323519 59.06247814 477.7527323 49.35031958 509.72288513 39.64028931 C521.0561447 36.19810083 532.38916773 32.75513446 543.72204208 29.31167793 C546.3990105 28.49829344 549.07598435 27.68492681 551.75296021 26.87156677 C552.62903364 26.60538449 553.50510708 26.33920221 554.4077282 26.0649538 C556.16255621 25.53177509 557.91738435 24.99859675 559.6722126 24.46541882 C563.87098938 23.18967694 568.06975514 21.91389884 572.26849365 20.63803101 C573.45305869 20.27809508 573.45305869 20.27809508 574.66155434 19.91088772 C576.23239231 19.43355387 577.80321231 18.95616086 579.3740139 18.47870731 C583.1619704 17.32747977 586.9502887 16.17747422 590.73947144 15.0302887 C597.54279137 12.9694965 604.34251617 10.89887511 611.1306591 8.78853798 C614.21667743 7.82990892 617.30462435 6.87758595 620.3927803 5.92586899 C621.85267113 5.47399087 623.31159601 5.01897885 624.76948166 4.56067276 C626.76928126 3.93218218 628.77208026 3.31432957 630.77587891 2.69873047 C632.47642929 2.16866898 632.47642929 2.16866898 634.21133423 1.62789917 C637 1 637 1 640 2 C631.53553396 10.10580222 622.48596113 17.1358198 613 24 C611.95851807 24.75482666 611.95851807 24.75482666 610.89599609 25.52490234 C570.93717458 54.3691039 527.54750511 76.84574383 481 93 C480.04480469 93.33483398 479.08960938 93.66966797 478.10546875 94.01464844 C438.75385134 107.67111714 397.45124113 114.91843863 356 118 C354.73236816 118.0942627 353.46473633 118.18852539 352.15869141 118.28564453 C342.39466722 118.95543095 332.66136246 119.2410871 322.875 119.25 C321.69828735 119.25151062 321.69828735 119.25151062 320.49780273 119.25305176 C251.71120884 119.19448359 181.49889304 105.06802125 119 76 C117.47681152 75.29206299 117.47681152 75.29206299 115.92285156 74.56982422 C108.5723301 71.13270133 101.2717286 67.60062264 94 64 C93.09008301 63.55043945 92.18016602 63.10087891 91.24267578 62.63769531 C11.44735205 22.89470409 11.44735205 22.89470409 0 0 Z " fill="#EFAE0C" transform="translate(641,1149)"/>
<path d="M0 0 C11.31035703 9.82036988 19.41091963 22.23556432 20.48828125 37.484375 C21.08868108 52.54562451 16.88256019 65.50025413 7.046875 77.015625 C-2.19307913 86.86749663 -13.47913878 93.47924941 -27.13671875 94.1640625 C-44.47491603 94.65782309 -57.01455199 90.9124948 -70.01171875 78.796875 C-80.46872065 67.88522084 -85.29981439 53.81130315 -85.1875 38.87524414 C-84.95120739 32.33289262 -83.41803598 26.83368335 -80.765625 20.890625 C-80.353125 19.95605469 -79.940625 19.02148438 -79.515625 18.05859375 C-73.03194614 4.88862106 -61.65365847 -4.14996492 -47.890625 -8.984375 C-31.19444178 -13.8441569 -13.88227354 -10.58817473 0 0 Z " fill="#D0789C" transform="translate(993.765625,1033.109375)"/>
<path d="M0 0 C4.95152794 3.41291757 8.54654813 7.62142545 11.76171875 12.6796875 C12.14070312 13.2675 12.5196875 13.8553125 12.91015625 14.4609375 C14.14900567 17.68876535 14.02546843 20.6103922 14.01171875 24.0546875 C14.01945313 25.98441406 14.01945313 25.98441406 14.02734375 27.953125 C13.76171875 31.6796875 13.76171875 31.6796875 11.76171875 37.6796875 C27.93171875 37.6796875 44.10171875 37.6796875 60.76171875 37.6796875 C55.14040356 43.30100269 55.14040356 43.30100269 52.00390625 45.51953125 C51.30595947 46.01767334 50.6080127 46.51581543 49.88891602 47.02905273 C48.77407837 47.81517944 48.77407837 47.81517944 47.63671875 48.6171875 C46.01762663 49.77259363 44.39915696 50.9288724 42.78125 52.0859375 C41.95061035 52.67890625 41.1199707 53.271875 40.26416016 53.8828125 C36.25828759 56.75922441 32.29044787 59.68646822 28.32421875 62.6171875 C27.53845459 63.19710449 26.75269043 63.77702148 25.94311523 64.37451172 C23.54874338 66.14212943 21.15511082 67.91074342 18.76171875 69.6796875 C13.23154117 73.76701402 7.69812164 77.84978885 2.15527344 81.91992188 C0.51636539 83.12486365 -1.12092784 84.33200406 -2.75683594 85.54101562 C-5.22540566 87.36416416 -7.69988101 89.1790117 -10.17578125 90.9921875 C-11.30318726 91.82858765 -11.30318726 91.82858765 -12.45336914 92.68188477 C-13.15453857 93.19291748 -13.85570801 93.7039502 -14.578125 94.23046875 C-15.19034912 94.68075439 -15.80257324 95.13104004 -16.43334961 95.5949707 C-18.4123323 96.78428764 -19.94658474 97.38950045 -22.23828125 97.6796875 C-24.83984375 96.046875 -24.83984375 96.046875 -27.86328125 93.5546875 C-29.02776234 92.61707078 -30.19455637 91.68232155 -31.36328125 90.75 C-31.98847656 90.24887695 -32.61367188 89.74775391 -33.2578125 89.23144531 C-36.71461317 86.5229363 -40.29132078 83.98319483 -43.86328125 81.4296875 C-52.56567229 75.18122476 -61.19584248 68.83880416 -69.81201172 62.47216797 C-73.95206466 59.41357784 -78.09511613 56.35905972 -82.23828125 53.3046875 C-83.02879883 52.72122559 -83.81931641 52.13776367 -84.63378906 51.53662109 C-89.89188977 47.6591328 -95.1771016 43.82337985 -100.5 40.03515625 C-101.36044922 39.36419922 -101.36044922 39.36419922 -102.23828125 38.6796875 C-102.23828125 38.3496875 -102.23828125 38.0196875 -102.23828125 37.6796875 C-86.06828125 37.6796875 -69.89828125 37.6796875 -53.23828125 37.6796875 C-53.89828125 35.6996875 -54.55828125 33.7196875 -55.23828125 31.6796875 C-56.25009063 22.69055992 -55.71738444 15.07519064 -50.23828125 7.6796875 C-37.36661781 -7.21466591 -16.75936917 -9.88598042 0 0 Z " fill="#FECEDD" transform="translate(839.23828125,694.3203125)"/>
<path d="M0 0 C16 0 16 0 19.58203125 2.3515625 C20.31808594 3.43179687 21.05414062 4.51203125 21.8125 5.625 C22.23660156 6.20894531 22.66070313 6.79289062 23.09765625 7.39453125 C23.98707611 8.62140748 24.8564218 9.86307585 25.70556641 11.11816406 C27.82210911 14.19517485 30.17321006 17.08095862 32.5 20 C33.41701523 21.17681181 34.33368233 22.35389497 35.25 23.53125 C37.91762171 26.9264049 40.6917374 30.22086407 43.5 33.5 C50.29267771 41.43497153 56.73313647 49.64418196 63 58 C63.33 38.86 63.66 19.72 64 0 C69.94 0 75.88 0 82 0 C82 30.03 82 60.06 82 91 C67 91 67 91 62.0625 86.625 C60.67186528 84.77688544 59.31705414 82.90125242 58 81 C56.67648969 79.3462571 55.34329359 77.7002141 54 76.0625 C53.34386719 75.23105469 52.68773437 74.39960937 52.01171875 73.54296875 C49.97175167 70.96429192 47.89830173 68.41671468 45.8125 65.875 C41.51037983 60.62923689 37.23048459 55.36571199 32.95629883 50.09716797 C28.31986101 44.3850532 23.65884909 38.69414888 19 33 C18.67 52.14 18.34 71.28 18 91 C12.06 91 6.12 91 0 91 C0 60.97 0 30.94 0 0 Z " fill="#F7EBF0" transform="translate(773,1302)"/>
<path d="M0 0 C15 0 15 0 19.9375 4.375 C21.32852636 6.2228198 22.68389811 8.09808828 24 10 C25.2401811 11.54957638 26.49020036 13.09133088 27.75 14.625 C28.71873047 15.85283203 28.71873047 15.85283203 29.70703125 17.10546875 C32.58697273 20.74096558 35.51059488 24.33977578 38.4375 27.9375 C39.00017578 28.62948486 39.56285156 29.32146973 40.14257812 30.03442383 C44.7505807 35.69876149 49.372425 41.35163639 54 47 C56.97 50.63 59.94 54.26 63 58 C63.33 38.86 63.66 19.72 64 0 C69.94 0 75.88 0 82 0 C82 30.03 82 60.06 82 91 C66 91 66 91 62.3125 88.5078125 C61.09033203 86.88745117 61.09033203 86.88745117 60 85.125 C59.3500708 84.23035034 59.3500708 84.23035034 58.68701172 83.31762695 C57.81877741 82.11934797 56.9701564 80.90656752 56.14355469 79.67919922 C54.59691325 77.40810617 52.87152028 75.30723934 51.125 73.1875 C50.49207031 72.38957031 49.85914063 71.59164063 49.20703125 70.76953125 C46.43126576 67.28631403 43.62297914 63.83022881 40.8125 60.375 C40.26505127 59.70146484 39.71760254 59.02792969 39.15356445 58.33398438 C36.22042986 54.72632658 33.28371971 51.121621 30.34375 47.51953125 C29.75231201 46.7939502 29.16087402 46.06836914 28.55151367 45.32080078 C27.41477688 43.9263313 26.27696353 42.53273854 25.13793945 41.14013672 C24.62448975 40.50994629 24.11104004 39.87975586 23.58203125 39.23046875 C23.13061768 38.67770264 22.6792041 38.12493652 22.21411133 37.55541992 C21.07062785 36.09048261 20.03084667 34.54627001 19 33 C18.67 52.14 18.34 71.28 18 91 C12.06 91 6.12 91 0 91 C0 60.97 0 30.94 0 0 Z " fill="#F7EBF0" transform="translate(1087,1302)"/>
<path d="M0 0 C0 18.15 0 36.3 0 55 C-7.16524553 57.98551897 -14.31592673 60.95377192 -21.54296875 63.77734375 C-22.82207878 64.27809166 -22.82207878 64.27809166 -24.12702942 64.78895569 C-25.91391571 65.48786591 -27.70108309 66.18605791 -29.48852539 66.88354492 C-32.16606155 67.92912824 -34.84184556 68.9791081 -37.51757812 70.02929688 C-46.42611375 73.51446859 -55.34798811 76.9149946 -64.39945984 80.01341248 C-67.59334613 81.11324351 -70.70809282 82.2896294 -73.78979492 83.66772461 C-77 85 -77 85 -80 85 C-80 67.18 -80 49.36 -80 31 C-73.23248708 28.28875483 -66.46489556 25.57771706 -59.69664764 22.86830902 C-56.54212572 21.6054612 -53.38776251 20.3422209 -50.23364258 19.07836914 C-37.43845473 13.95159153 -24.63947557 8.83405393 -11.81640625 3.77734375 C-10.36354469 3.20035484 -10.36354469 3.20035484 -8.8813324 2.61170959 C-7.99953812 2.26538986 -7.11774384 1.91907013 -6.20922852 1.56225586 C-5.0558474 1.10706825 -5.0558474 1.10706825 -3.87916565 0.64268494 C-2 0 -2 0 0 0 Z " fill="#BC628B" transform="translate(1073,848)"/>
<path d="M0 0 C8.77957068 2.35734961 17.11879173 5.72210047 25.52734375 9.12890625 C27.0079047 9.72546277 28.48858412 10.32172533 29.96937561 10.91770935 C33.05242359 12.15969374 36.13421348 13.40473357 39.21508789 14.65209961 C43.16274563 16.25019003 47.1132061 17.84121361 51.06458187 19.43008518 C54.1136133 20.65687037 57.16129405 21.88698129 60.20855904 23.1181469 C61.66543131 23.70637155 63.1226878 24.29364555 64.58033562 24.87994576 C66.61082859 25.69732011 68.63949567 26.5190677 70.66772461 27.34204102 C71.82114853 27.80820328 72.97457245 28.27436554 74.16294861 28.75465393 C77 30 77 30 80 32 C80.36076355 34.25259399 80.36076355 34.25259399 80.34057617 37.09228516 C80.34034958 38.15323395 80.34012299 39.21418274 80.33988953 40.30728149 C80.32440567 41.45626923 80.30892181 42.60525696 80.29296875 43.7890625 C80.28872391 44.96262299 80.28447906 46.13618347 80.28010559 47.3453064 C80.26326976 51.10543454 80.22560777 54.86503297 80.1875 58.625 C80.17245954 61.16926311 80.15877003 63.7135346 80.14648438 66.2578125 C80.11335017 72.50539005 80.06310206 78.75265719 80 85 C75.4508825 84.15837425 71.27144197 82.71767141 66.95703125 81.078125 C66.16746033 80.7815097 65.3778894 80.48489441 64.56439209 80.17929077 C61.97893878 79.20676203 59.39567002 78.22857572 56.8125 77.25 C55.02539083 76.57579281 53.23819923 75.9018041 51.45092773 75.22802734 C46.86702147 73.49835901 42.28527197 71.76305628 37.7043457 70.0255127 C35.072168 69.02736677 32.4394722 68.0305994 29.80664062 67.03417969 C25.8044316 65.51894525 21.80359541 64.00014754 17.80404663 62.47790527 C16.31118114 61.9098721 14.81803762 61.34256906 13.32461548 60.77600098 C11.258313 59.99145026 9.19340719 59.20333952 7.12890625 58.4140625 C5.96431885 57.9701416 4.79973145 57.5262207 3.59985352 57.06884766 C1 56 1 56 0 55 C-0.0935919 53.28134591 -0.11744611 51.55884256 -0.11352539 49.83764648 C-0.11344986 48.73658066 -0.11337433 47.63551483 -0.11329651 46.50108337 C-0.10813522 45.3031868 -0.10297394 44.10529022 -0.09765625 42.87109375 C-0.0962413 41.65172623 -0.09482635 40.4323587 -0.09336853 39.17604065 C-0.08774967 35.2631693 -0.07519396 31.35035419 -0.0625 27.4375 C-0.05748743 24.79231853 -0.0529241 22.14713617 -0.04882812 19.50195312 C-0.03777411 13.00128274 -0.02101764 6.50064539 0 0 Z " fill="#D1789C" transform="translate(850,848)"/>
<path d="M0 0 C0 34.32 0 68.64 0 104 C-15.37469476 104 -26.06811855 99.32606688 -37.24609375 88.90625 C-47.70309565 77.99459584 -52.53418939 63.92067815 -52.421875 48.98461914 C-52.18558239 42.44226762 -50.65241098 36.94305835 -48 31 C-47.5875 30.06542969 -47.175 29.13085938 -46.75 28.16796875 C-40.26454691 14.99439217 -28.99714179 6.29264755 -15.4375 1.0625 C-11 0 -11 0 0 0 Z " fill="#BC628B" transform="translate(961,1023)"/>
<path d="M0 0 C6.95517248 -0.25468783 13.90913376 -0.42913012 20.86791992 -0.54931641 C23.23198371 -0.59944019 25.59574002 -0.66756169 27.95874023 -0.75439453 C48.78036907 -1.50006062 48.78036907 -1.50006062 53.41699219 2.1628418 C55.76171875 4.84765625 55.76171875 4.84765625 57.4050293 7.53540039 C60.59509112 12.46478568 66.61866481 14.2062216 72 16 C85.13925258 16.94333095 96.04036541 16.26619882 106.5625 7.4375 C108.46189383 5.66881715 109.92084138 4.12736889 111.29316711 1.91925049 C113 0 113 0 115.25895691 -0.48101807 C116.1405397 -0.47213562 117.0221225 -0.46325317 117.93041992 -0.45410156 C118.93123093 -0.45379944 119.93204193 -0.45349731 120.96318054 -0.45318604 C122.5804882 -0.42221832 122.5804882 -0.42221832 124.23046875 -0.390625 C125.88880486 -0.38213531 125.88880486 -0.38213531 127.5806427 -0.37347412 C131.11669964 -0.35105795 134.65174859 -0.30084996 138.1875 -0.25 C140.58266767 -0.22994187 142.97785121 -0.21168991 145.37304688 -0.1953125 C151.24904267 -0.151176 157.12444933 -0.08421128 163 0 C160.57787659 2.5005795 158.17802752 4.72755883 155.33984375 6.7421875 C154.63867432 7.24355225 153.93750488 7.74491699 153.21508789 8.26147461 C152.46348389 8.79393799 151.71187988 9.32640137 150.9375 9.875 C149.30931385 11.03955133 147.68172881 12.20494346 146.0546875 13.37109375 C145.21776367 13.97034668 144.38083984 14.56959961 143.51855469 15.18701172 C139.51006901 18.07253078 135.53518613 21.00297946 131.5625 23.9375 C130.77681641 24.51733643 129.99113281 25.09717285 129.18164062 25.69458008 C126.78720782 27.46230674 124.39348355 29.23098831 122 31 C116.46817921 35.08854101 110.93350957 39.17308734 105.38916016 43.24462891 C103.75757381 44.44339304 102.1270877 45.64365572 100.49755859 46.84521484 C98.04406544 48.65237556 95.58525206 50.45205575 93.125 52.25 C92.3817749 52.79922119 91.6385498 53.34844238 90.87280273 53.91430664 C88.94096086 55.31987046 86.98531774 56.67150804 85 58 C84.16726563 58.56460938 83.33453125 59.12921875 82.4765625 59.7109375 C79.43180055 60.06631981 78.84878886 59.5040251 76.390625 57.7734375 C74.99691212 56.65728178 73.6175391 55.52307492 72.25 54.375 C70.72362283 53.14951269 69.19491459 51.92692398 67.6640625 50.70703125 C66.88708008 50.0826416 66.11009766 49.45825195 65.30957031 48.81494141 C61.84344235 46.09113641 58.24726345 43.57277714 54.625 41.0625 C46.12462794 35.1281667 37.78441184 28.98927517 29.45556641 22.81738281 C24.47592709 19.13191502 19.48296409 15.46448579 14.49267578 11.79345703 C13.03918842 10.72305441 11.58667239 9.65133125 10.13525391 8.578125 C8.65056827 7.48082247 7.16304874 6.38734816 5.67333984 5.296875 C4.93937988 4.75546875 4.20541992 4.2140625 3.44921875 3.65625 C2.45474731 2.92631836 2.45474731 2.92631836 1.44018555 2.18164062 C0.96492432 1.79169922 0.48966309 1.40175781 0 1 C0 0.67 0 0.34 0 0 Z " fill="#FBDDE9" transform="translate(1023,732)"/>
<path d="M0 0 C22.44 0 44.88 0 68 0 C68 4.95 68 9.9 68 15 C51.5 15 35 15 18 15 C18 22.26 18 29.52 18 37 C32.52 37 47.04 37 62 37 C62 41.95 62 46.9 62 52 C47.48 52 32.96 52 18 52 C18 59.92 18 67.84 18 76 C34.83 76 51.66 76 69 76 C69 80.95 69 85.9 69 91 C46.23 91 23.46 91 0 91 C0 60.97 0 30.94 0 0 Z " fill="#F7EBF0" transform="translate(1300,1302)"/>
<path d="M0 0 C22.11 0 44.22 0 67 0 C67 4.95 67 9.9 67 15 C50.83 15 34.66 15 18 15 C18 22.26 18 29.52 18 37 C32.19 37 46.38 37 61 37 C61 41.95 61 46.9 61 52 C46.81 52 32.62 52 18 52 C18 59.92 18 67.84 18 76 C34.83 76 51.66 76 69 76 C69 80.95 69 85.9 69 91 C46.23 91 23.46 91 0 91 C0 60.97 0 30.94 0 0 Z " fill="#F7EBEF" transform="translate(987,1302)"/>
<path d="M0 0 C-0.65419099 5.06998019 -2.8546409 9.41990777 -5 14 C-8.57381996 13.38734515 -11.65673669 12.38623113 -15 11 C-23.83407884 7.73781994 -34.03557669 6.47025832 -43 10 C-45.77039685 11.84693124 -47.51562895 13.0312579 -49 16 C-49.50095023 18.87306228 -49.50095023 18.87306228 -49 22 C-45.44229405 26.38806237 -41.88449997 28.11654207 -36.5625 29.5625 C-35.51231689 29.8709082 -35.51231689 29.8709082 -34.44091797 30.18554688 C-31.03630546 31.17827072 -27.61542192 32.10373747 -24.19140625 33.02734375 C-3.8011658 38.58831842 -3.8011658 38.58831842 2 48 C4.86153817 55.02377552 4.96519463 61.90927215 2.5625 69.0625 C-0.4058595 75.73611944 -5.24411441 80.18263601 -11.78515625 83.34765625 C-26.62879661 89.04418398 -44.42228296 88.76433601 -59.02734375 82.3125 C-68.62178702 77.75642597 -68.62178702 77.75642597 -70 75 C-69.10333658 72.75689987 -68.10853317 70.55245679 -67.0625 68.375 C-66.49660156 67.18648437 -65.93070313 65.99796875 -65.34765625 64.7734375 C-64.68056641 63.40058594 -64.68056641 63.40058594 -64 62 C-60.51741026 63.35051954 -57.17284893 64.8719432 -53.8125 66.5 C-44.13479861 70.89777583 -33.49383779 72.85556026 -23.125 69.75 C-19.62637963 68.41247434 -17.07482468 67.24755167 -15 64 C-14.66905042 60.22717474 -14.80245183 57.59264452 -16 54 C-19.58270985 52.22294691 -23.41085019 51.27159238 -27.26171875 50.23046875 C-28.46376953 49.89853516 -29.66582031 49.56660156 -30.90429688 49.22460938 C-33.40528525 48.53900027 -35.90787625 47.85920791 -38.41210938 47.18554688 C-49.47290973 44.11211915 -59.44245775 40.97969987 -66 31 C-68.99834054 23.6996926 -68.82285022 16.53918491 -66.08984375 9.234375 C-62.55345706 1.98414852 -57.34325259 -2.02913783 -49.96484375 -5.03515625 C-34.11047644 -10.19461439 -14.18051305 -9.45367537 0 0 Z " fill="#F7EBF0" transform="translate(954,1308)"/>
<path d="M0 0 C-1.65 4.62 -3.3 9.24 -5 14 C-8.82904139 13.23419172 -11.89597178 12.34655999 -15.5 11 C-24.61682599 7.92363261 -33.82035786 6.72155638 -43 10 C-46.7120109 11.79161201 -46.7120109 11.79161201 -49 15 C-49.6892646 20.48222608 -49.6892646 20.48222608 -47.33203125 25.13671875 C-44.68469843 27.25192437 -42.63131887 28.02455272 -39.375 28.9375 C-38.23417969 29.26621094 -37.09335938 29.59492187 -35.91796875 29.93359375 C-33.09088857 30.71032837 -30.25833519 31.46616502 -27.42578125 32.22265625 C-26.64090332 32.4347876 -25.85602539 32.64691895 -25.04736328 32.86547852 C-23.51558406 33.27734425 -21.98148005 33.68069376 -20.44482422 34.07397461 C-10.86688849 36.62859066 -3.6357778 40.54633329 2 49 C4.3755209 56.1265627 4.10583796 64.65256531 1 71.5 C-3.72222277 79.568784 -11.32661448 83.25725723 -20 86 C-34.5539538 89.29523482 -51.77517152 86.8413055 -65 80 C-68.125 77.75 -68.125 77.75 -70 76 C-69.34580901 70.93001981 -67.1453591 66.58009223 -65 62 C-61.81299251 62.6518879 -59.34251122 63.81161883 -56.5 65.375 C-44.93566112 71.24220134 -33.51469276 72.70670455 -21.12890625 68.94921875 C-18.82406129 67.92155393 -17.5783612 66.95716789 -16 65 C-14.97977121 61.64781969 -14.76235934 59.71292199 -15.875 56.375 C-21.36101085 50.24357611 -30.68620549 48.93077374 -38.375 47.125 C-49.52886559 44.33454295 -59.20796742 41.75017491 -65.9765625 31.83203125 C-69.29058189 25.89968357 -68.69389935 18.17727407 -67.609375 11.6484375 C-65.57783362 5.11104151 -60.5973188 0.26002557 -54.8984375 -3.3203125 C-37.56577894 -11.82907215 -16.53854288 -8.49897343 0 0 Z " fill="#F7EBF0" transform="translate(1268,1308)"/>
<path d="M0 0 C4.95152794 3.41291757 8.54654813 7.62142545 11.76171875 12.6796875 C12.32632813 13.56720703 12.32632813 13.56720703 12.90234375 14.47265625 C15.40594255 20.90235316 14.72825494 30.44556722 12.07421875 36.7421875 C7.24415427 45.71230726 0.37814876 50.64650541 -9.01489258 54.06225586 C-12.8864451 55.13738009 -16.67932026 55.16767924 -20.67578125 55.1171875 C-21.51471924 55.10961426 -22.35365723 55.10204102 -23.21801758 55.09423828 C-29.31780425 54.93132362 -34.11240044 54.17658077 -39.23828125 50.6796875 C-39.92921875 50.24398437 -40.62015625 49.80828125 -41.33203125 49.359375 C-47.77014057 44.96320333 -52.81851513 39.16891839 -55.23828125 31.6796875 C-56.27945703 22.70365634 -55.70526363 15.05883039 -50.23828125 7.6796875 C-37.36661781 -7.21466591 -16.75936917 -9.88598042 0 0 Z " fill="#314341" transform="translate(839.23828125,694.3203125)"/>
<path d="M0 0 C2.36744777 0.85956818 4.01107191 1.95107441 6.02075195 3.46801758 C7.14803711 4.31009766 7.14803711 4.31009766 8.2980957 5.16918945 C9.10118164 5.77827148 9.90426758 6.38735352 10.73168945 7.01489258 C12.45243839 8.30216035 14.17380699 9.58860015 15.89575195 10.87426758 C16.76748047 11.52717773 17.63920898 12.18008789 18.53735352 12.8527832 C22.36303238 15.69986767 26.23286386 18.48387185 30.10668945 21.26489258 C37.86692222 26.85113833 45.57441734 32.50623124 53.26293945 38.19067383 C56.62943207 40.67904081 60.00551332 43.15369851 63.38793945 45.62036133 C64.25104736 46.25143799 65.11415527 46.88251465 66.00341797 47.53271484 C67.65556555 48.74035265 69.30960164 49.94541252 70.96582031 51.14746094 C71.71226807 51.694104 72.45871582 52.24074707 73.2277832 52.80395508 C73.88190186 53.2804248 74.53602051 53.75689453 75.20996094 54.24780273 C77.31202333 55.92912796 79.20333441 57.86153754 81.10668945 59.76489258 C65.92668945 59.76489258 50.74668945 59.76489258 35.10668945 59.76489258 C34.77668945 61.08489258 34.44668945 62.40489258 34.10668945 63.76489258 C34.10282227 62.63954102 34.10282227 62.63954102 34.09887695 61.49145508 C33.7362911 51.89501609 30.8758714 45.04314561 23.85668945 38.38989258 C14.53864308 31.04777122 2.56397835 29.52634032 -8.89331055 30.76489258 C-17.7079646 32.99607062 -25.33266551 37.4773347 -30.45581055 45.08520508 C-33.64383069 50.86349159 -34.7396989 56.20148602 -34.89331055 62.76489258 C-35.22331055 61.77489258 -35.55331055 60.78489258 -35.89331055 59.76489258 C-51.07331055 59.76489258 -66.25331055 59.76489258 -81.89331055 59.76489258 C-78.14868279 56.02026482 -75.03098686 53.29072298 -70.76831055 50.32739258 C-69.51992074 49.45120291 -68.27258233 48.57351392 -67.02612305 47.69458008 C-66.36 47.22503906 -65.69387695 46.75549805 -65.00756836 46.27172852 C-61.18414715 43.54676827 -57.41665997 40.74605586 -53.64331055 37.95239258 C-47.42037911 33.35156114 -41.17466075 28.78563984 -34.89331055 24.26489258 C-28.43085063 19.61106121 -21.99482738 14.92279295 -15.58081055 10.20239258 C-14.38875 9.32647461 -14.38875 9.32647461 -13.17260742 8.43286133 C-12.42430664 7.88114258 -11.67600586 7.32942383 -10.9050293 6.76098633 C-10.2042627 6.24648926 -9.50349609 5.73199219 -8.78149414 5.2019043 C-7.1650273 3.97168399 -5.62340506 2.64417878 -4.1003418 1.30004883 C-1.89331055 -0.23510742 -1.89331055 -0.23510742 0 0 Z " fill="#FECEDD" transform="translate(818.893310546875,659.235107421875)"/>
<path d="M0 0 C7.22158024 3.98398588 12.73111721 9.15381238 16.09375 16.76953125 C18.24590793 24.24544828 18.10355401 31.93624174 14.84765625 39.04296875 C9.10058359 48.80818971 1.50068043 53.07529402 -9.08984375 56.60546875 C-22.15142238 57.40784166 -31.96023095 57.11852692 -42.40234375 48.48046875 C-49.43493974 41.6582969 -52.32946935 35.84281415 -52.65234375 25.98046875 C-52.42151999 19.94260517 -51.81140324 15.42683239 -48.08984375 10.60546875 C-47.62707031 10.00476563 -47.16429687 9.4040625 -46.6875 8.78515625 C-34.923087 -4.50374059 -15.69143586 -6.94156456 0 0 Z " fill="#314441" transform="translate(1122.08984375,692.39453125)"/>
<path d="M0 0 C5.3044522 1.64109799 9.32032553 5.0114403 13.6875 8.3125 C15.39914821 9.59063608 17.11140197 10.86796157 18.82421875 12.14453125 C20.12238525 13.11447021 20.12238525 13.11447021 21.44677734 14.10400391 C25.26930346 16.9425713 29.13285949 19.72269 33 22.5 C40.75863782 28.08533564 48.464598 33.73945549 56.15234375 39.421875 C59.53351654 41.92091247 62.92242858 44.40900692 66.31640625 46.890625 C67.18402588 47.52621338 68.05164551 48.16180176 68.94555664 48.81665039 C70.6112484 50.03658693 72.27833895 51.25461656 73.94702148 52.47045898 C74.69669189 53.02032471 75.4463623 53.57019043 76.21875 54.13671875 C77.2077832 54.85927856 77.2077832 54.85927856 78.21679688 55.59643555 C80 57 80 57 83 60 C67.82 60 52.64 60 37 60 C35.68 56.04 34.36 52.08 33 48 C28.00619597 39.87055157 20.97602762 34.16764962 11.703125 31.4765625 C0.79186738 29.55290147 -9.34275864 30.21126171 -19 36 C-28.43950623 42.65733597 -31.24540409 48.98161635 -34 60 C-49.18 60 -64.36 60 -80 60 C-74.37868481 54.37868481 -74.37868481 54.37868481 -71.2421875 52.16015625 C-70.54424072 51.66201416 -69.84629395 51.16387207 -69.12719727 50.65063477 C-68.01235962 49.86450806 -68.01235962 49.86450806 -66.875 49.0625 C-65.25590788 47.90709387 -63.63743821 46.7508151 -62.01953125 45.59375 C-61.1888916 45.00078125 -60.35825195 44.4078125 -59.50244141 43.796875 C-55.49656884 40.92046309 -51.52872912 37.99321928 -47.5625 35.0625 C-46.77673584 34.48258301 -45.99097168 33.90266602 -45.18139648 33.30517578 C-42.78702463 31.53755807 -40.39339207 29.76894408 -38 28 C-34.8133104 25.6447337 -31.62597668 23.29034657 -28.4375 20.9375 C-27.6643042 20.36692871 -26.8911084 19.79635742 -26.09448242 19.20849609 C-19.60256321 14.42640227 -13.07129734 9.69990264 -6.52124023 4.99780273 C-5.81040283 4.48677002 -5.09956543 3.9757373 -4.3671875 3.44921875 C-3.73925293 2.99893311 -3.11131836 2.54864746 -2.46435547 2.0847168 C-1.02536593 1.07446838 -1.02536593 1.07446838 0 0 Z " fill="#F6EAEF" transform="translate(1103,659)"/>
<path d="M0 0 C22.11 0 44.22 0 67 0 C67 4.95 67 9.9 67 15 C50.83 15 34.66 15 18 15 C18 23.58 18 32.16 18 41 C32.52 41 47.04 41 62 41 C62 46.28 62 51.56 62 57 C47.48 57 32.96 57 18 57 C18 68.22 18 79.44 18 91 C12.06 91 6.12 91 0 91 C0 60.97 0 30.94 0 0 Z " fill="#F7EBF0" transform="translate(623,1302)"/>
<path d="M0 0 C5.94 0 11.88 0 18 0 C18 30.03 18 60.06 18 91 C12.06 91 6.12 91 0 91 C0 60.97 0 30.94 0 0 Z " fill="#F7EBEF" transform="translate(719,1302)"/>
<path d="M0 0 C0.72574219 0.44988281 1.45148437 0.89976562 2.19921875 1.36328125 C0.68988619 5.15357145 -1.48279643 6.95006114 -4.67578125 9.42578125 C-8.87468697 12.76407574 -12.88129846 16.20258401 -16.80078125 19.86328125 C-21.37392011 24.12070132 -26.10624749 28.09804314 -30.9765625 32.015625 C-36.09344819 36.26908046 -40.93846666 40.82342383 -45.80078125 45.36328125 C-52.38137959 38.83635826 -56.05624243 34.23817352 -56.23828125 24.67578125 C-56.06475413 15.44992286 -53.31609466 9.47311907 -46.73828125 3.05078125 C-32.83402474 -8.22355832 -15.31902907 -8.95212438 0 0 Z " fill="#5F6665" transform="translate(839.80078125,694.63671875)"/>
<path d="M0 0 C2.74139726 1.52299848 4.58605106 3.16017118 6.671875 5.484375 C5.95257812 5.88398437 5.23328125 6.28359375 4.4921875 6.6953125 C1.504625 8.59046988 -0.87714541 10.68718524 -3.453125 13.109375 C-7.13313631 16.51350862 -10.85727878 19.78275467 -14.765625 22.921875 C-19.31847999 26.59269541 -23.61480836 30.46207356 -27.89135742 34.44433594 C-32.50712549 38.71390246 -37.35362626 42.64344566 -42.328125 46.484375 C-45.71069221 45.09240171 -47.16501182 43.6818254 -49.015625 40.546875 C-49.43199219 39.85722656 -49.84835937 39.16757812 -50.27734375 38.45703125 C-53.66352178 32.10007994 -53.45715535 22.87127005 -51.6796875 15.96484375 C-50.7364465 13.92115493 -49.70273243 12.2652097 -48.328125 10.484375 C-47.86535156 9.88367188 -47.40257812 9.28296875 -46.92578125 8.6640625 C-34.78468026 -5.0503352 -16.05993644 -6.60332412 0 0 Z " fill="#5F6664" transform="translate(1122.328125,692.515625)"/>
<path d="M0 0 C1.64746094 1.97119141 1.64746094 1.97119141 3.234375 4.3515625 C3.80800781 5.20234375 4.38164063 6.053125 4.97265625 6.9296875 C5.85244141 8.26386719 5.85244141 8.26386719 6.75 9.625 C7.35199219 10.5221875 7.95398437 11.419375 8.57421875 12.34375 C10.05769912 14.5571969 11.53250926 16.77593344 13 19 C9.85474558 20.02159818 8.0313887 19.97006798 4.90576172 18.93603516 C4.11168915 18.67891754 3.31761658 18.42179993 2.4994812 18.15689087 C1.65144928 17.87050751 0.80341736 17.58412415 -0.0703125 17.2890625 C-0.94775116 17.00147064 -1.82518982 16.71387878 -2.72921753 16.41757202 C-5.53111688 15.49640518 -8.32793109 14.56071874 -11.125 13.625 C-13.01662483 13.00168615 -14.90854882 12.37927939 -16.80078125 11.7578125 C-20.25715104 10.61810427 -23.71298058 9.47692495 -27.16455078 8.32275391 C-27.85864044 8.09101471 -28.5527301 7.85927551 -29.26785278 7.62051392 C-31 7 -31 7 -33 6 C-33 5.34 -33 4.68 -33 4 C-28.94684128 3.09142835 -24.89026388 2.20086651 -20.82958984 1.32666016 C-19.44928411 1.02687551 -18.07002519 0.72222749 -16.69189453 0.41259766 C-14.70862084 -0.03210178 -12.72221752 -0.45906951 -10.734375 -0.8828125 C-9.54038086 -1.14465332 -8.34638672 -1.40649414 -7.11621094 -1.67626953 C-3.78649165 -2.02218051 -2.63806072 -1.98722337 0 0 Z " fill="#EFAE11" transform="translate(1365,487)"/>
<path d="M0 0 C1.86328125 0.1015625 1.86328125 0.1015625 4.3125 0.625 C5.27414062 0.8209375 6.23578125 1.016875 7.2265625 1.21875 C8.47179687 1.4765625 9.71703125 1.734375 11 2 C14.72722995 2.71857033 18.45762568 3.42030463 22.1875 4.125 C24.05608599 4.48126553 25.92458277 4.8379995 27.79296875 5.1953125 C28.6027417 5.35016113 29.41251465 5.50500977 30.24682617 5.66455078 C30.82537354 5.77524902 31.4039209 5.88594727 32 6 C32 6.66 32 7.32 32 8 C25.79263718 10.02454307 19.5809264 12.0352769 13.3659668 14.03637695 C11.25132722 14.71905843 9.13771136 15.40491928 7.02514648 16.09399414 C3.9920447 17.0827241 0.95547017 18.06003947 -2.08203125 19.03515625 C-3.02899368 19.34655045 -3.97595612 19.65794464 -4.95161438 19.97877502 C-5.83230087 20.25914108 -6.71298737 20.53950714 -7.62036133 20.82836914 C-8.39535477 21.07929825 -9.17034821 21.33022736 -9.96882629 21.58876038 C-12 22 -12 22 -15 21 C-12.87850798 17.87260509 -10.75221447 14.74850479 -8.625 11.625 C-8.02171875 10.73554688 -7.4184375 9.84609375 -6.796875 8.9296875 C-6.21679688 8.07890625 -5.63671875 7.228125 -5.0390625 6.3515625 C-4.23782959 5.17327881 -4.23782959 5.17327881 -3.42041016 3.97119141 C-2 2 -2 2 0 0 Z " fill="#FBCB34" transform="translate(560,485)"/>
</svg>
